<svg xmlns="http://www.w3.org/2000/svg" width="36" height="3" viewBox="0 0 36 3">
  <g id="グループ_681" data-name="グループ 681" transform="translate(36) rotate(90)">
    <path id="パス_700" data-name="パス 700" d="M1.627.285S1.79.142,1.994,0c.43.057.34.108.825.562a3.353,3.353,0,0,1-.286.474A4.766,4.766,0,0,0,2.061,3.5v.38l.04.95.2,2.185v2.8l.122,1.14.123,2.327-.057,2.849c.082,1.425.082,2.517.122,6.7V26.34c0,.475.22.76.18,1.045-.041,1.045.041,1.757.041,1.995a4.714,4.714,0,0,0,.123,1.727A2.917,2.917,0,0,1,3,31.772C3,33.766,2.525,36,1.668,36c-.613,0-.57-2-.238-5.082.07-2.808-.064-4.322-.064-7.931,0-2.1-.053-4.707-.169-7.313C.973,10.659.856,5.664.082,4.407A1.589,1.589,0,0,1,0,3.98,2.842,2.842,0,0,1,.572,2.251C.877,1.767,1.627.285,1.627.285Z" transform="translate(0 0)" fill="#fff"/>
  </g>
</svg>
