<svg xmlns="http://www.w3.org/2000/svg" width="54" height="50.88" viewBox="0 0 54 50.88">
  <g id="グループ_729" data-name="グループ 729" transform="translate(-911 -15900)">
    <g id="グループ_391" data-name="グループ 391" transform="translate(911 15900)">
      <path id="パス_765" data-name="パス 765" d="M-11794.062,2182.521c11.8,0,13.565-4.54,13.688-5.977.385-4.479-7.135-6.255-13.3-6.255-7.712,0-13.921,2.383-14.178,5.938C-11808.206,2181-11800.168,2182.521-11794.062,2182.521Zm.371-10.639c5.05,0,8.547,1.743,8.033,4.775-.484,2.855-3.967,3.783-8.27,3.783-4.071,0-8.6-1.16-8.6-3.916S-11798.524,2171.9-11793.69,2171.883Z" transform="translate(11820.063 -2163.259)" fill="#fff"/>
      <path id="パス_766" data-name="パス 766" d="M-11794.028,2315.009c11.8,0,13.6-4.537,13.689-5.976.239-3.869-4.1-6.256-13.307-6.256-7.711,0-13.982,2.571-14.177,5.938C-11808.065,2312.929-11801.57,2315.009-11794.028,2315.009Zm.371-10.639c5.093,0,8.771,1.752,8.2,4.776-.491,2.616-4.137,3.783-8.438,3.783-4.068,0-8.476-1.146-8.6-3.916C-11802.614,2306.259-11798.489,2304.39-11793.657,2304.37Z" transform="translate(11820.029 -2282.009)" fill="#fff"/>
      <path id="パス_767" data-name="パス 767" d="M-11887.8,2103.879a105.126,105.126,0,0,0,15.6-.289c1.474-.159,1.116.172.343.75a60.224,60.224,0,0,1-4.932,3.488,7.237,7.237,0,0,1-6.022.468c-3.563-1.04-10.089-2.056-19.816-1.753-10.946.34-17.577,3.664-20.31,2.918-5.588-1.525.937-4.2,1.438-6.875.022-.122.114-.125.218-.067.844.471-.206,2.818,3.778,2.424A183.7,183.7,0,0,1-11887.8,2103.879Z" transform="translate(11925.185 -2102.483)" fill="#fff"/>
    </g>
    <g id="グループ_429" data-name="グループ 429" transform="translate(926.068 15941.88)">
      <text id="TOP" transform="translate(11 7)" fill="#fff" font-size="9" font-family="AGaramondPro-Semibold, Adobe Garamond Pro" font-weight="600" letter-spacing="0.15em"><tspan x="-10.467" y="0">TOP</tspan></text>
    </g>
  </g>
</svg>
