<svg xmlns="http://www.w3.org/2000/svg" width="374.348" height="306" viewBox="0 0 374.348 306">
  <g id="グループ_1403" data-name="グループ 1403" transform="translate(-366.067 -334.551)">
    <g id="グループ_1403-2" data-name="グループ 1403" transform="translate(424.585 334.551)">
      <path id="パス_1422" data-name="パス 1422" d="M463.921,401.539c55.469,0,63.755-21.338,64.335-28.09,1.809-21.055-33.537-29.4-62.537-29.4-36.245,0-65.418,11.2-66.639,27.91C397.438,394.393,435.219,401.539,463.921,401.539Zm1.741-50c23.741,0,40.18,8.19,37.76,22.442-2.276,13.421-18.651,17.784-38.867,17.784-19.126,0-40.421-5.454-40.421-18.407S442.952,351.629,465.663,351.537Z" transform="translate(-340.891 -310.445)" fill="#fff"/>
      <path id="パス_1423" data-name="パス 1423" d="M463.907,420.09c55.469,0,63.918-21.323,64.335-28.094,1.122-18.181-19.26-29.4-62.537-29.4-36.245,0-65.73,12.086-66.639,27.91C397.922,410.315,428.444,420.09,463.907,420.09Zm1.741-50c23.939,0,41.214,8.236,38.552,22.445-2.3,12.3-19.444,17.784-39.66,17.784-19.126,0-39.837-5.387-40.421-18.407C423.542,378.961,442.937,370.181,465.648,370.085Z" transform="translate(-340.876 -263.341)" fill="#fff"/>
      <path id="パス_1424" data-name="パス 1424" d="M559.526,341.112c25.673.98,49.269,1.278,73.849-1.359,6.969-.747,5.277.81,1.624,3.529-8.112,6.031-14.741,11.177-23.344,16.39-8.869,5.376-18.673,5.054-28.508,2.2-16.868-4.888-47.743-9.662-93.781-8.239-51.8,1.6-83.185,17.222-96.12,13.714-26.448-7.167,4.431-19.749,6.8-32.313.11-.566.535-.587,1.03-.311,3.992,2.212-.977,13.244,17.88,11.393C477.959,340.327,507.288,339.12,559.526,341.112Z" transform="translate(-382.602 -334.551)" fill="#fff"/>
    </g>
    <g id="グループ_1404" data-name="グループ 1404" transform="translate(366.067 534.308)">
      <path id="パス_1425" data-name="パス 1425" d="M404.664,413.91v-.138c6.4-.807,12.058-3.567,12.058-10.441,0-6.466-4.99-11.283-18.191-11.587-8.823-.2-12.511,2.385-16.744,1.055h0a38.451,38.451,0,0,0-3.794-.92,29.53,29.53,0,0,0-11.428.513c-.559.227-.726.672-.088.9,4.222,1.465,6.342,2.35,9.75,7.153,4.268,6.013,2.86,23.164,2.3,29.839-.368,4.4-1.193,6.187-4.474,7.1a1.86,1.86,0,0,0-1.387,1.78h0a1.832,1.832,0,0,0,2.046,1.826,83.283,83.283,0,0,1,9.407-.467c5.256,0,8.087.81,14.415.81,17.519,0,21.557-8.759,21.557-14.015C420.088,418.557,411.806,414.919,404.664,413.91Zm-17.1-16.567c1.278-.984,5.174-1.692,7.4-1.692,5.861,0,10.575,2.7,10.575,8.625,0,5.794-3.773,8.218-11.991,8.218-1.076,0-2.29-.134-3.84-.134a75.113,75.113,0,0,0-.467-7.8A28.412,28.412,0,0,0,387.567,397.343Zm10.766,40.078c-5.861,0-8.625-1.55-8.625-7.815V416.671a33.129,33.129,0,0,1,5.054-.269c8.487,0,13.336,4.714,13.336,11.049C408.1,432.837,404.261,437.421,398.333,437.421Z" transform="translate(-366.067 -389.617)" fill="#fff"/>
      <path id="パス_1426" data-name="パス 1426" d="M427.99,395.035a1.778,1.778,0,0,1,1.812-1.78c.609.011,1.38.011,2.435.011,3.214,0,5.684-1.405,8.544-2.177a2.747,2.747,0,0,1,3.444,2.513v.025c.34,5.295,1.157,6.409,7.687,23.068,4.173,10.639,5.8,16.142,11.127,20.021,3.408,2.485,5.192,2.552,6.778,2.722,2.439.262,2.2.506.687,1.89-1.387,1.26-5.316,2.375-9.262,2.375-7.457,0-10.947-3.054-13.261-7.8-.881-1.8-1.462-2.591-5.1-11.92a131.69,131.69,0,0,0-17.784-.134c-2.966,7-3.773,8.352-3.773,10.239,0,2.934,2.219,4.357,4.8,4.82a1.808,1.808,0,0,1,1.529,1.762h0a1.783,1.783,0,0,1-2.021,1.77,54.134,54.134,0,0,0-15.226,0,1.782,1.782,0,0,1-2.021-1.766v-.258a1.784,1.784,0,0,1,1.253-1.7c3.787-1.2,6.165-3.5,12.624-18.372,6.47-14.818,8.625-18.995,8.625-21.016a2.315,2.315,0,0,0-1.6-2.24A1.9,1.9,0,0,1,427.99,395.035Zm-1.009,24.371a102.76,102.76,0,0,0,14.415,0l-6.87-18.595Z" transform="translate(-258.613 -390.993)" fill="#fff"/>
      <path id="パス_1427" data-name="パス 1427" d="M495.32,436.263a78.674,78.674,0,0,1-7.963-1.575c-5.312-1.49-6.714-1.217-21.306-16.114-3.776-3.854-6.813-5.015-9.644-4.516l3.348-3.231,12.327-10.844c2.881-2.52,5.28-4.24,9.294-4.774a1.776,1.776,0,1,0-.46-3.521,57.967,57.967,0,0,1-15.912,0,1.776,1.776,0,0,0-2.017,1.762v.074a1.777,1.777,0,0,0,1.423,1.755c2.06.389,2.623.952,2.623,2.074,0,2.361-.609,2.159-17.583,17.784V402.475c0-4.442,1.122-6.208,4.509-7.114a1.792,1.792,0,0,0,1.352-1.724v-.223a1.774,1.774,0,0,0-1.978-1.77,76.254,76.254,0,0,1-18.952,0,1.771,1.771,0,0,0-1.975,1.77v.223a1.792,1.792,0,0,0,1.348,1.724c3.391.906,4.512,2.672,4.512,7.114V429.96c0,4.442-1.122,6.208-4.512,7.114a1.792,1.792,0,0,0-1.348,1.72v.226a1.766,1.766,0,0,0,1.975,1.766,76.726,76.726,0,0,1,18.952,0,1.769,1.769,0,0,0,1.978-1.766v-.226a1.791,1.791,0,0,0-1.352-1.72c-3.387-.906-4.509-2.672-4.509-7.114v-9.634l1.5-1.189c1.37-1.087,3.712-3.143,9.124,3.833,12.168,15.679,13.619,18.177,16.319,19.066,2.162.715,4.166.641,8.282-.29,4.364-.987,9.418-3.083,11-4.608C496.088,436.73,495.9,436.338,495.32,436.263Z" transform="translate(-197.627 -389.369)" fill="#fff"/>
      <path id="パス_1428" data-name="パス 1428" d="M467.744,433.115c3.394,5.741,9.637,9.4,17.9,9.4,16.843,0,23.174-9.566,23.174-23.444V403.849c0-4.675,1.816-7.11,5.539-7.779a1.77,1.77,0,0,0,1.469-1.731v-.064a1.764,1.764,0,0,0-2.007-1.745,54.94,54.94,0,0,1-15.388,0,1.76,1.76,0,1,0-.435,3.493c5.1.605,6.781,3.139,6.781,9.039v15.9c0,10.373-6.063,16.57-14.012,16.57-6.746,0-12.136-3.348-14.776-9.06-2.513-5.447-1.847-14.553-.244-20.9,1.423-5.631,2.906-7.6,2.492-9.708-.414-2.092-1.38-3.394-6.636-4.948-4.442-1.313-14.178-1.78-16.171-1.49-1.125.166-1.122,1.182-.449,1.61,1.794,1.143,11.286,2.8,10.225,13.654C464.29,415.992,463.387,425.75,467.744,433.115Z" transform="translate(-141.476 -390.092)" fill="#fff"/>
      <path id="パス_1429" data-name="パス 1429" d="M421.217,418.311v12.539c0,4.445,1.189,5.836,6.739,6.452a1.8,1.8,0,0,1,1.646,1.738v.131a1.811,1.811,0,0,1-2.035,1.741,116.119,116.119,0,0,0-11.9-.626,98.073,98.073,0,0,0-11.1.626,1.811,1.811,0,0,1-2.035-1.741v-.163a1.794,1.794,0,0,1,1.589-1.731c5.026-.726,6.087-2.739,6.087-7.776v-8.494l-10.175-16.177c-4.1-7.11-6.119-8.742-10.54-9.489a1.792,1.792,0,0,1-1.543-1.727v-.223a1.806,1.806,0,0,1,2-1.745c2.867.248,7.637.644,11.785.644a76.984,76.984,0,0,0,9.248-.609,1.805,1.805,0,0,1,2.042,1.741v.138a1.794,1.794,0,0,1-1.44,1.752c-2.092.414-2.683,1.313-2.683,2.775,0,1.617,1.809,2.647,10.055,15.859" transform="translate(-310.498 -389.35)" fill="#fff"/>
      <path id="パス_1430" data-name="パス 1430" d="M397.678,421.709s7.478-7.839,11.141-11.746c3.4-3.635,16.3-15.526,11.5-17.345-4.927-1.861-12.337-.966-14.383-.541-1.7.354-1.709.966-.28,1.624,2.5,1.15,2.962,4.282-1.217,11.612a123.7,123.7,0,0,1-8.218,12.185" transform="translate(-289.515 -389.747)" fill="#fff"/>
    </g>
    <g id="グループ_1407" data-name="グループ 1407" transform="translate(419.46 608.999)">
      <g id="グループ_1405" data-name="グループ 1405" transform="translate(59.81)">
        <path id="パス_1431" data-name="パス 1431" d="M432.751,414.521a3.554,3.554,0,0,0-3.146,1.738,11.419,11.419,0,0,0-.91,5.3V431.5q0,3.52.145,6.647t.35,5.029h-1.738a18.008,18.008,0,0,0-1.285-1.469q-.706-.722-2.237-2.258-1.115-1.035-2.113-2.028l-16.893-16.687v11.014a32.781,32.781,0,0,0,.248,4.576,6.336,6.336,0,0,0,.828,2.545,3,3,0,0,0,1.49,1.2,9.812,9.812,0,0,0,2.488.453v2.237a7.162,7.162,0,0,1-.789-.081,32.562,32.562,0,0,0-10.352,0,7.21,7.21,0,0,1-.786.081v-2.237a5.363,5.363,0,0,0,2.361-.683,3.5,3.5,0,0,0,1.387-1.759,12.459,12.459,0,0,0,.683-3.21q.2-2.007.205-5.277v-6.877a12.7,12.7,0,0,0-1.1-5.981,4.285,4.285,0,0,0-3.539-2.216v-2.237h.124a34.381,34.381,0,0,0,4.8.5,30.132,30.132,0,0,0,4.512-.5,3.787,3.787,0,0,0,.52,1.409,10.672,10.672,0,0,0,1.033,1.469q.6.727,1.161,1.285t1.345,1.3l.042.042,14.783,14.036q.08-1.985.081-4.183v-5.755a22.959,22.959,0,0,0-.248-3.787,5.3,5.3,0,0,0-.786-2.173,2.811,2.811,0,0,0-1.387-1.037,8.67,8.67,0,0,0-2.219-.372v-2.237c.195.028.432.053.7.081a27.6,27.6,0,0,0,9.527,0c.272-.028.51-.053.7-.081Z" transform="translate(-398.053 -411.622)" fill="#fff"/>
        <path id="パス_1432" data-name="パス 1432" d="M431.312,432.86a10.7,10.7,0,0,1-2.548,2.092,5.955,5.955,0,0,1-3.044.81,3.294,3.294,0,0,1-2.258-.687,6.443,6.443,0,0,1-1.43-2.131,11.705,11.705,0,0,1-3.621,2.173,11.205,11.205,0,0,1-4.038.807,4.42,4.42,0,0,1-3.231-1.179,4.36,4.36,0,0,1-1.2-3.252q0-3.021,3.292-5.05a25.66,25.66,0,0,1,8.965-3.022V421.97a4.359,4.359,0,0,0-.909-3.023,3.264,3.264,0,0,0-2.527-.995,5.069,5.069,0,0,0-2.835.768,2.113,2.113,0,0,0-1.179,1.716,1.759,1.759,0,0,0,.411,1.161l-1.49,1.076-2.4-3.231a16.566,16.566,0,0,1,4.615-3.249,13.119,13.119,0,0,1,5.447-1.055,6.436,6.436,0,0,1,5.011,1.823A7.437,7.437,0,0,1,428,422.136q0,1.242-.251,3.727-.249,2.527-.248,3.769a4.511,4.511,0,0,0,.333,2.07,1.07,1.07,0,0,0,.991.58,2.3,2.3,0,0,0,1.656-.747Zm-13.251-.166a4.177,4.177,0,0,0,1.55-.287,3.127,3.127,0,0,0,1.3-1.058,6,6,0,0,0,.934-2.212,15.678,15.678,0,0,0,.35-3.606l-.287.085c-1.051.219-1.886.428-2.506.619a9.237,9.237,0,0,0-1.78.768,3.857,3.857,0,0,0-1.37,1.264,3.475,3.475,0,0,0-.517,1.947Q415.739,432.7,418.061,432.693Z" transform="translate(-367.865 -404.373)" fill="#fff"/>
        <path id="パス_1433" data-name="パス 1433" d="M418.328,433.274a3.026,3.026,0,0,0,1.989-1.033,4.159,4.159,0,0,0,.665-2.608v-7.7a2.49,2.49,0,0,0-2.654-2.817v-2.07a14.276,14.276,0,0,0,3.893-.538,12.59,12.59,0,0,0,3.231-1.366h1.656a7.128,7.128,0,0,0-.333,1.78v1.78l.085.081a12.036,12.036,0,0,1,2.587-2.669,5.186,5.186,0,0,1,3.129-.973,3.35,3.35,0,0,1,2.442.849,2.959,2.959,0,0,1,.871,2.212,3.419,3.419,0,0,1-.973,2.463,3.169,3.169,0,0,1-2.382,1.016,1.808,1.808,0,0,1-1.076-.269,4.555,4.555,0,0,1-.828-.807,4.081,4.081,0,0,0-.789-.807,1.733,1.733,0,0,0-1.033-.269,1.8,1.8,0,0,0-1.14.6,1.626,1.626,0,0,0-.641,1.058V429.3a3.926,3.926,0,0,0,.888,2.92,4.775,4.775,0,0,0,2.838,1.055v2.07q-4.146-.329-6.211-.329c-1.384,0-3.451.11-6.215.329Z" transform="translate(-346.571 -404.373)" fill="#fff"/>
        <path id="パス_1434" data-name="パス 1434" d="M446.781,432.86a10.7,10.7,0,0,1-2.548,2.092,5.945,5.945,0,0,1-3.044.81,3.278,3.278,0,0,1-2.255-.687,6.39,6.39,0,0,1-1.43-2.131,11.764,11.764,0,0,1-3.624,2.173,11.191,11.191,0,0,1-4.038.807,4.406,4.406,0,0,1-3.228-1.179,4.36,4.36,0,0,1-1.2-3.252q0-3.021,3.288-5.05a25.656,25.656,0,0,1,8.968-3.022V421.97a4.343,4.343,0,0,0-.913-3.023,3.251,3.251,0,0,0-2.523-.995,5.073,5.073,0,0,0-2.838.768,2.121,2.121,0,0,0-1.179,1.716,1.758,1.758,0,0,0,.411,1.161l-1.49,1.076-2.4-3.231a16.579,16.579,0,0,1,4.619-3.249,13.1,13.1,0,0,1,5.443-1.055,6.431,6.431,0,0,1,5.012,1.823,7.42,7.42,0,0,1,1.656,5.174c0,.828-.085,2.07-.248,3.727q-.25,2.527-.251,3.769a4.563,4.563,0,0,0,.333,2.07,1.076,1.076,0,0,0,.995.58,2.311,2.311,0,0,0,1.656-.747Zm-13.251-.166a4.162,4.162,0,0,0,1.55-.287,3.135,3.135,0,0,0,1.306-1.058,6.059,6.059,0,0,0,.931-2.212,15.666,15.666,0,0,0,.354-3.606l-.29.085c-1.051.219-1.886.428-2.506.619a9.234,9.234,0,0,0-1.78.768,3.845,3.845,0,0,0-1.366,1.264,3.448,3.448,0,0,0-.52,1.947Q431.209,432.7,433.53,432.693Z" transform="translate(-328.576 -404.373)" fill="#fff"/>
        <path id="パス_1435" data-name="パス 1435" d="M433.847,441a3.825,3.825,0,0,0,1.3-.248,1.419,1.419,0,0,0,.726-.743,5.236,5.236,0,0,0,.354-1.6c.067-.7.1-1.688.1-2.962v-4.222a8.094,8.094,0,0,0-.5-3.539,2.1,2.1,0,0,0-1.986-.85v-2.07a16.459,16.459,0,0,0,4-.58,10.553,10.553,0,0,0,3.125-1.324h1.741c-.113.8-.195,1.511-.251,2.134s-.081,1.345-.081,2.17v10.727a3.708,3.708,0,0,0,.6,2.442,2.987,2.987,0,0,0,2.254.662v2.07l-.5-.043q-3.4-.287-5.22-.287c-1.239,0-2.994.1-5.256.287l-.414.043Zm2.9-27.744a4.719,4.719,0,0,1,3.065-1.157,3.083,3.083,0,0,1,2.131.683,2.612,2.612,0,0,1,.768,2.049,3.39,3.39,0,0,1-1.409,2.651,4.734,4.734,0,0,1-3.065,1.157,3.092,3.092,0,0,1-2.134-.683,2.6,2.6,0,0,1-.764-2.049A3.389,3.389,0,0,1,436.746,413.254Z" transform="translate(-307.166 -412.097)" fill="#fff"/>
      </g>
      <g id="グループ_1406" data-name="グループ 1406" transform="translate(0 14.034)">
        <path id="パス_1436" data-name="パス 1436" d="M406.025,418.061a128.348,128.348,0,0,0,13.856.251c1.313-.092,1.023.216.4.8a25.777,25.777,0,0,1-4.636,3.677,6.468,6.468,0,0,1-5.362.219,45.258,45.258,0,0,0-13.973-1.529c-8.2.188-9.9,2.47-12.784,1.575-5.893-1.83,1-4.562,1.529-6.9.025-.106.106-.106.2-.05.733.442-.269,2.58,3.274,2.258A116.767,116.767,0,0,1,406.025,418.061Z" transform="translate(-381.154 -416.062)" fill="#fff"/>
        <path id="パス_1437" data-name="パス 1437" d="M468.721,418.061a128.329,128.329,0,0,0,13.856.251c1.31-.092,1.019.216.4.8a25.925,25.925,0,0,1-4.64,3.677,6.46,6.46,0,0,1-5.358.219A45.286,45.286,0,0,0,459,421.476c-8.2.188-9.9,2.47-12.787,1.575-5.889-1.83,1-4.562,1.533-6.9.025-.106.1-.106.195-.05.733.442-.266,2.58,3.274,2.258A116.816,116.816,0,0,1,468.721,418.061Z" transform="translate(-221.961 -416.062)" fill="#fff"/>
      </g>
    </g>
  </g>
</svg>
