<svg xmlns="http://www.w3.org/2000/svg" width="137.81" height="19.565" viewBox="0 0 137.81 19.565">
  <path id="パス_747" data-name="パス 747" d="M285.248,378.811v-.05c2.356-.3,4.439-1.314,4.439-3.844,0-2.381-1.836-4.154-6.7-4.266-3.248-.075-4.606.878-6.165.387h0a13.905,13.905,0,0,0-1.4-.338,10.851,10.851,0,0,0-4.206.189c-.206.084-.268.248-.032.33a5.844,5.844,0,0,1,3.589,2.633c1.571,2.213,1.052,8.527.845,10.984-.136,1.621-.44,2.278-1.647,2.614a.685.685,0,0,0-.511.655h0a.675.675,0,0,0,.753.673,30.606,30.606,0,0,1,3.463-.172c1.935,0,2.976.3,5.307.3,6.448,0,7.936-3.224,7.936-5.159C290.927,380.522,287.877,379.183,285.248,378.811Zm-6.295-6.1a6.1,6.1,0,0,1,2.723-.623c2.158,0,3.894.992,3.894,3.174,0,2.133-1.389,3.025-4.415,3.025-.4,0-.843-.05-1.413-.05a27.511,27.511,0,0,0-.173-2.87A10.447,10.447,0,0,0,278.953,372.713Zm3.964,14.753c-2.158,0-3.174-.57-3.174-2.877v-4.762a12.148,12.148,0,0,1,1.86-.1c3.125,0,4.91,1.736,4.91,4.068A3.538,3.538,0,0,1,282.917,387.466Zm50.476-16.109a.654.654,0,0,1,.667-.655c.225,0,.509,0,.9,0a11.414,11.414,0,0,0,3.145-.8,1.013,1.013,0,0,1,1.269.926v.008c.124,1.949.425,2.359,2.83,8.493,1.536,3.916,2.133,5.942,4.1,7.371a4.272,4.272,0,0,0,2.5,1c.9.1.812.187.253.695a6,6,0,0,1-3.409.875c-2.746,0-4.031-1.125-4.882-2.871a38.028,38.028,0,0,1-1.878-4.388,48.587,48.587,0,0,0-6.547-.05c-1.091,2.579-1.389,3.075-1.389,3.77,0,1.08.818,1.6,1.769,1.774a.667.667,0,0,1,.563.649h0a.656.656,0,0,1-.744.651,19.924,19.924,0,0,0-5.605,0,.656.656,0,0,1-.744-.651v-.1a.657.657,0,0,1,.461-.625c1.394-.442,2.27-1.289,4.648-6.763,2.381-5.456,3.174-6.994,3.174-7.737a.852.852,0,0,0-.588-.824A.7.7,0,0,1,333.393,371.357Zm-.372,8.971a37.8,37.8,0,0,0,5.307,0l-2.529-6.845Zm47.737,7.126a10.962,10.962,0,0,1-4.047,1.7,5.287,5.287,0,0,1-3.049.108c-.994-.328-1.528-1.247-6.007-7.019-1.993-2.568-2.855-1.811-3.36-1.411l-.551.438v3.546c0,1.635.413,2.286,1.66,2.619a.661.661,0,0,1,.5.634v.083a.652.652,0,0,1-.728.651,28.157,28.157,0,0,0-6.977,0,.652.652,0,0,1-.727-.651v-.083a.661.661,0,0,1,.5-.634c1.247-.333,1.66-.984,1.66-2.619V374.693c0-1.635-.413-2.286-1.66-2.619a.66.66,0,0,1-.5-.634v-.082a.652.652,0,0,1,.727-.651,28.216,28.216,0,0,0,6.977,0,.652.652,0,0,1,.728.651v.082a.661.661,0,0,1-.5.634c-1.248.333-1.661.984-1.661,2.619v4.662c6.249-5.754,6.472-5.679,6.472-6.547,0-.414-.206-.62-.964-.764a.654.654,0,0,1-.524-.647v-.027a.654.654,0,0,1,.741-.649,21.31,21.31,0,0,0,5.858,0,.654.654,0,1,1,.17,1.3,6.024,6.024,0,0,0-3.421,1.758l-4.538,3.993-1.232,1.189c1.042-.184,2.16.244,3.55,1.663,5.372,5.484,5.888,5.384,7.844,5.933a28.961,28.961,0,0,0,2.932.58C380.845,387.159,380.913,387.3,380.757,387.454Zm9.457-11.474c.392-4-3.1-4.6-3.764-5.026-.248-.158-.249-.531.165-.592a23.282,23.282,0,0,1,5.953.548c1.935.572,2.29,1.052,2.442,1.822s-.393,1.5-.917,3.572c-.59,2.336-.835,5.688.091,7.693a5.736,5.736,0,0,0,5.439,3.336c2.926,0,5.158-2.282,5.158-6.1V375.38c0-2.171-.618-3.1-2.5-3.328a.648.648,0,1,1,.159-1.286,20.256,20.256,0,0,0,5.665,0,.649.649,0,0,1,.739.643v.023a.65.65,0,0,1-.54.636c-1.372.246-2.039,1.143-2.039,2.865v5.6c0,5.109-2.331,8.63-8.531,8.63a7.315,7.315,0,0,1-6.589-3.461C389.546,383,389.878,379.4,390.214,375.98ZM311.8,380.53v4.616c0,1.636.439,2.148,2.482,2.376a.662.662,0,0,1,.605.64v.048a.667.667,0,0,1-.749.642,42.434,42.434,0,0,0-4.379-.231,35.843,35.843,0,0,0-4.087.231.667.667,0,0,1-.749-.642v-.06a.66.66,0,0,1,.584-.637c1.85-.267,2.241-1.009,2.241-2.863v-3.127L304,375.567c-1.509-2.616-2.253-3.218-3.88-3.492a.66.66,0,0,1-.569-.635v-.082a.664.664,0,0,1,.738-.642c1.054.09,2.812.237,4.338.237a28.15,28.15,0,0,0,3.4-.225.665.665,0,0,1,.752.641v.051a.66.66,0,0,1-.53.645c-.769.153-.987.484-.987,1.021,0,.6.666.975,3.7,5.839m-.648,1.16a45.486,45.486,0,0,0,3.025-4.485c1.538-2.7,1.37-3.852.449-4.275-.527-.242-.523-.467.1-.6a11.535,11.535,0,0,1,5.294.2c1.77.67-2.977,5.047-4.231,6.385-1.348,1.438-4.1,4.324-4.1,4.324" transform="translate(-271.039 -369.868)" fill="#fff"/>
</svg>
