<svg className="p-main_About_imgList_items_icn_svg imgList01_icn_svg" version="1.1" id="icn-byaku" xmlns="http://www.w3.org/2000/svg" xmlns:xlink="http://www.w3.org/1999/xlink" x="0px" y="0px" viewBox="0 0 124 94" style="enable-background:new 0 0 124 94;" xml:space="preserve">
                <path id="Path05" className="st0" d="M73.4,66.7c19.2,0,22.1-7.4,22.3-9.7c0.6-7.3-11.6-10.2-21.6-10.2c-12.5,0-22.6,3.9-23.1,9.7
                    C50.4,64.3,63.5,66.7,73.4,66.7z M74,49.4c8.2,0,13.9,2.8,13.1,7.8c-0.8,4.6-6.5,6.2-13.4,6.2c-6.6,0-14-1.9-14-6.4
                    S66.2,49.5,74,49.4L74,49.4z"></path>
                <path id="Path04" className="st0" d="M73.4,89.4c19.2,0,22.1-7.4,22.3-9.7C96.1,73.4,89,69.5,74,69.5c-12.5,0-22.7,4.2-23.1,9.7
                    C50.6,86.1,61.1,89.4,73.4,89.4z M74,72.1c8.3,0,14.3,2.9,13.3,7.8c-0.8,4.3-6.7,6.2-13.7,6.2c-6.6,0-13.8-1.9-14-6.4
                    C59.4,75.2,66.2,72.2,74,72.1L74,72.1z"></path>
                <path id="Path03" className="st0" d="M92.1,37.5c8.5,0.5,17.1,0.3,25.5-0.5c2.4-0.3,1.8,0.3,0.6,1.2c-2.6,2-5.3,3.9-8.1,5.7
                    c-3.1,1.9-6.5,1.7-9.9,0.8c-5.8-1.7-16.5-3.3-32.4-2.9c-17.9,0.6-28.8,6-33.3,4.7c-9.1-2.5,1.5-6.8,2.4-11.2c0-0.2,0.2-0.2,0.4-0.1
                    c1.4,0.8-0.3,4.6,6.2,3.9C63.8,37.2,74,36.8,92.1,37.5z"></path>
                <path id="Path02" className="st0" d="M25.9,70.9c-1.2,1.2-2.5,2.3-3.8,3.2c-0.7,0.5-1.4,0.9-2.2,1.3c-1.5,1-3.4,1.2-5.1,0.4
                    c-3-1.4-6-2.8-9-4.3c-0.4-0.3-0.8-0.6-1.1-0.9l0.1-0.3c1.3-0.1,2.6-0.2,3.8-0.2c7.6,0,14.9-3.1,20.3-8.5c3-2.9,4.6-6.5,3.8-10.2
                    c-0.1-0.6-0.2-1.1-0.2-1.7c-0.1-0.9,0.4-1.3,1.3-1.2c2.6,0.4,4.8,1.9,6.3,4c1,1.5,0.7,2.9-0.5,4.3c-1.7,2.1-3.6,4.1-5.5,6.1
                    c-0.7,0.7-1.1,1.6-1.1,2.5c-0.1,5.6-0.3,4.4-0.3,8.8c0,2.3,0.3,4.6,0.5,6.9c0.2,1.8-0.2,3.6-1.1,5.2c-0.7,1.3-2.2,1.9-3.6,1.2
                    c-0.2-0.1-0.5-0.3-0.7-0.5c-1.6-1.6-2.2-4-1.6-6.2c1.2-5.1,1.2-6.4,1.1-11.6C27.4,69.5,26.3,70.5,25.9,70.9z"></path>
                <path id="Path01" className="fadeIconTrigger01 st0 fadeIcon" d="M26.5,28.3c-0.7,2.6-1.6,5.1-2.5,7.5c-0.9,1.6-1.9,3.2-3.2,4.5c-0.9,1-2.3,1.3-3.6,0.8
                    c-2-0.7-3.6-2-4.6-3.8c-0.8-1.3-0.6-2.1,0.6-3.1c0.9-0.8,2-1.5,2.8-2.4c4.5-4.5,5.7-9.9,4.5-15.9c0-0.2-0.1-0.4-0.2-1
                    c0.6,0.1,1.2,0.3,1.8,0.5c1.6,0.8,2.9,2.2,3.5,3.9c0.3,0.8,0.3,1.6,1,1.7c8.2-1,14.2-1.8,23.1-2.7c3.2-0.3,6.6-0.7,10-1
                    c-0.2-3.4-1-5.8-3.5-7.6c-1-0.8-2.2-1.3-3.3-2c-0.5-0.3-1-0.7-1.4-1.1c-0.7-0.9-0.3-1.7,0.8-1.8c4.5-0.3,9,0.2,13.3,1.5
                    c3.5,1.1,4.6,4.2,2.8,7.5c-0.6,1.1-1.7,2.4-2.3,3.5c5.5-0.2,8.3-0.4,13.7-0.5c4.8-0.2,9.2-0.2,14-0.3c2.6,0,5.1,0.7,7.4,2.1
                    c2.2,1.2,4.4,2.6,6.4,4c2.1,1.4,2.4,3.8,0.5,5.3c-2.7,1.8-5.8,3.1-9,3.7c-1,0.2-1.7,0.1-1.4-0.9c0.2-0.8,0.4-1.7,0.6-2.5
                    c0.4-1.7-2.1-2.8-4.5-3.6c-2-0.5-4-0.7-6-0.8c-7.2-0.2-14.3-0.2-21.5,0.2c-9.2,0.5-18.4,1.5-27.6,2.6C33.4,27,31.6,27.4,26.5,28.3z"></path>
                </svg>