<svg xmlns="http://www.w3.org/2000/svg" width="99.528" height="75.359" viewBox="0 0 99.528 75.359">
  <g id="グループ_1900" data-name="グループ 1900" transform="translate(-321.733 -222.518)">
    <g id="グループ_1898" data-name="グループ 1898" transform="translate(321.733 222.518)">
      <path id="パス_1660" data-name="パス 1660" d="M462.811,241.321a.807.807,0,0,1-.443.465c-.054.023-.094.095-.126.152s-.055.142-.088.21c-.119.241-.264.255-.437.049-.047-.056-.1-.1-.181-.18-.066.136-.12.239-.167.344s-.073.213-.206.234-.187-.09-.252-.176l-.17-.222c-.09.081-.162.146-.235.209-.147.127-.288.262-.444.375a.253.253,0,0,1-.4-.049,3.144,3.144,0,0,1-.228-.363c-.056-.089-.113-.177-.172-.269a.926.926,0,0,0-.467.719.292.292,0,0,0,.122.231,2.557,2.557,0,0,0,.568.322,1.859,1.859,0,0,1,.713.468.577.577,0,0,0,.374.189,1.185,1.185,0,0,1,.523.176.547.547,0,0,1,.257.411,1.231,1.231,0,0,0,.132.4c.268.472.253.7-.142,1.222a.416.416,0,0,1-.334.154,2.177,2.177,0,0,0-1.1.415.678.678,0,0,1-.416.155.271.271,0,0,0-.271.153,1.1,1.1,0,0,1-.425.388c-.184.119-.359.252-.535.383a.347.347,0,0,0-.149.331.9.9,0,0,1-.268.738.433.433,0,0,0-.162.357c.008.061,0,.154.039.175a.237.237,0,0,0,.186-.019c.167-.082.327-.178.49-.267.282-.153.566-.3.847-.459,1.036-.571,2.066-1.153,3.107-1.714.736-.4,1.485-.769,2.229-1.151q.632-.324,1.268-.644a.449.449,0,0,0,.258-.426q.049-.949.134-1.9c.036-.4.106-.8.149-1.206a1.231,1.231,0,0,0-.028-.35c-.033-.18-.03-.189.137-.261a.711.711,0,0,0,.21-.134c.126-.122.237-.26.362-.383a.271.271,0,0,0,.05-.326.584.584,0,0,1-.023-.437,2.266,2.266,0,0,0,.315-.038,2.238,2.238,0,0,0,.475-.154c.413-.213.817-.443,1.223-.669a.766.766,0,0,0,.206-.145.734.734,0,0,1,.414-.224c.206-.047.407-.119.615-.147a2.007,2.007,0,0,1,1.63.37,1.043,1.043,0,0,1,.3,1.279,4.723,4.723,0,0,1-.442.766,1.458,1.458,0,0,0-.3.867c0,.22-.01.441.006.66.014.184.065.225.249.193a8.205,8.205,0,0,0,.866-.19,3.821,3.821,0,0,1,1.124-.155,5.041,5.041,0,0,0,.553-.06c.176-.016.351-.027.527-.037.117-.006.236,0,.354-.01a.58.58,0,0,1,.61.347,1.583,1.583,0,0,0,.153.234c.223.3.449.592.672.888.162.216.152.218.021.445a.828.828,0,0,0-.086.335,1.323,1.323,0,0,1-.423.91.4.4,0,0,0-.1.141.38.38,0,0,1-.458.271,3.7,3.7,0,0,0-.777,0,.415.415,0,0,0-.351.159c-.214.245-.221.241-.514.1-.272-.129-.411-.081-.583.2-.144.239-.245.295-.47.238a.765.765,0,0,1-.2-.105c-.05-.031-.093-.073-.144-.1s-.121-.057-.181-.084a.326.326,0,0,0-.1.048.44.44,0,0,1-.565.118c-.177-.078-.245-.015-.247.187,0,.345.005.69,0,1.035-.007.287-.055.574-.044.86.02.48.082.959.109,1.439a8.332,8.332,0,0,1,.023,1.189,5.449,5.449,0,0,0,.086,1.461c.042.227.236.291.422.358.333.12.675.221,1,.367.508.23,1,.489,1.5.738s1,.491,1.489.756a7.449,7.449,0,0,1,1.181.782,8.352,8.352,0,0,1,.7.615,1.956,1.956,0,0,0,.411.248c.333.2.67.394.995.606a1.282,1.282,0,0,1,.463.527,4.347,4.347,0,0,0,.343.562c.176.258.365.506.542.763a.538.538,0,0,1,.1.228,1.144,1.144,0,0,0,.221.53,1.506,1.506,0,0,1,.211.43.578.578,0,0,1-.024.341.6.6,0,0,0-.03.369,2.2,2.2,0,0,1,.034.251.507.507,0,0,1-.238.564.285.285,0,0,0-.139.275.585.585,0,0,1-.351.565.946.946,0,0,0-.5,1,.974.974,0,0,1-.3.729.525.525,0,0,1-.6.037c-.467-.212-.918-.462-1.389-.666a2.076,2.076,0,0,1-.747-.622c-.208-.242-.386-.514-.607-.736a3.388,3.388,0,0,0-1.144-.863,4.153,4.153,0,0,1-.611-.357,14.1,14.1,0,0,1-1.446-1.027,13.243,13.243,0,0,0-1.232-.8.2.2,0,0,0-.182,0,.236.236,0,0,0-.063.2,1.281,1.281,0,0,1-.04.795.432.432,0,0,0,.082.428.9.9,0,0,1,.2.732,1.7,1.7,0,0,0,.048.7,1.8,1.8,0,0,1,.045.527.5.5,0,0,1-.119.238c-.064.088-.149.161-.215.248a.392.392,0,0,0-.089.353.837.837,0,0,1,.006.253c-.013.252-.139.329-.369.229l-.129-.059c0,.084,0,.15,0,.216a.783.783,0,0,1-.135.455c-.074.124-.175.125-.256,0-.065-.1-.11-.21-.165-.314-.03-.057-.064-.111-.109-.191-.018.132-.024.231-.046.326a.229.229,0,0,1-.384.145,3.419,3.419,0,0,1-.293-.279,1.615,1.615,0,0,0-.162-.16c-.1-.073-.186-.055-.218.062a.552.552,0,0,1-.376.4.43.43,0,0,0-.215.577c.05.134.105.267.147.4a2.053,2.053,0,0,1,.041.286c-.129-.013-.225-.013-.318-.033a.425.425,0,0,0-.44.186.347.347,0,0,0-.023.338c.068.253.033.315-.221.372-.131.029-.267.032-.4.061a1.245,1.245,0,0,0-.379.122.263.263,0,0,1-.326-.016.817.817,0,0,1-.166-.156,1.425,1.425,0,0,1-.345-.958.557.557,0,0,0-.177-.479.779.779,0,0,1-.221-.527.42.42,0,0,0-.39-.422.257.257,0,0,1-.074-.015c-.135-.061-.313-.085-.327-.274-.012-.166.17-.351.36-.4.032-.008.062-.021.1-.033a.4.4,0,0,0-.126-.321c-.235-.288-.48-.568-.72-.853-.212-.253-.435-.5-.631-.763a17.218,17.218,0,0,0-1.23-1.483c-.149-.161-.284-.335-.441-.488-.186-.181-.287-.175-.476.005-.091.087-.172.186-.258.279a.606.606,0,0,1-.47.213.714.714,0,0,0-.249.03,1.328,1.328,0,0,1-.794-.026.58.58,0,0,1-.411-.265.242.242,0,0,0-.3-.124.283.283,0,0,1-.381-.287,3.471,3.471,0,0,1,.007-.456c.009-.193.028-.386.036-.579.015-.363-.045-.461-.4-.656-.074.092-.145.193-.229.282-.208.221-.423.435-.631.655a.444.444,0,0,0-.11.166,9.46,9.46,0,0,0-.281,1.075.95.95,0,0,0,.128.5.741.741,0,0,1,.093.51.6.6,0,0,0,0,.147.58.58,0,0,1,0,.2,1.221,1.221,0,0,0-.038.693c.011.06-.044.14-.085.2a.293.293,0,0,0-.039.309c.074.169.132.346.216.51a.607.607,0,0,1-.139.8c-.057.051-.114.1-.175.147-.146.107-.194.083-.361,0a2.065,2.065,0,0,1-.709-.5c-.012-.015-.046-.013-.084-.022a.991.991,0,0,0-.195.554,1.559,1.559,0,0,1-.059.294c-.094.22-.189.247-.395.132-.1-.053-.187-.113-.28-.169-.209.131-.236.357-.334.539a.443.443,0,0,0-.02.074c-.093.285-.139.305-.419.186-.231-.1-.3-.078-.438.134s-.271.427-.407.641c-.1.149-.144.152-.313.077a.669.669,0,0,1-.349-.379c-.161-.378-.337-.75-.5-1.13-.133-.319-.251-.643-.373-.966a4.143,4.143,0,0,1-.106-1.259c-.012-.2-.027-.4-.025-.606,0-.245.033-.49.029-.734-.006-.387-.025-.773-.051-1.16-.023-.344-.227-.479-.531-.356-.124.05-.234.136-.357.19s-.236.08-.377.126c.032.13.06.242.088.354a.531.531,0,0,1-.254.632,2.026,2.026,0,0,1-.178.1.405.405,0,0,0-.234.283.843.843,0,0,1-.347.483,1.241,1.241,0,0,0-.226.265,3.285,3.285,0,0,0-.261.4c-.135.256-.4.4-.532.663-.041.078-.154.123-.242.17-.156.082-.321.147-.475.232s-.236.094-.349-.052a1.522,1.522,0,0,1-.212-.371.461.461,0,0,0-.326-.291,2,2,0,0,1-.241-.075.566.566,0,0,0-.574.068c-.2.135-.243.126-.406-.05-.04-.042-.077-.087-.135-.154a1.388,1.388,0,0,0-.145.136c-.079.1-.144.209-.227.3a.49.49,0,0,1-.655.149c-.077-.033-.149-.079-.228-.106a.248.248,0,0,0-.361.162c-.038.089-.034.222-.163.232-.149.012-.191-.128-.241-.228a1.728,1.728,0,0,1-.186-1.107,2.686,2.686,0,0,0-.03-.982.564.564,0,0,1,.122-.471c.062-.08.135-.151.2-.228a2.879,2.879,0,0,0,.21-.254c.114-.167.208-.347.329-.507a.355.355,0,0,0,.06-.419.168.168,0,0,1,.065-.242,1.876,1.876,0,0,1,.437-.249,2.732,2.732,0,0,0,1.139-.776,1.892,1.892,0,0,0,.247-.349,12.039,12.039,0,0,1,1.037-1.5c.29-.363.549-.749.825-1.124.316-.428.63-.857.953-1.281a2.821,2.821,0,0,0,.449-.876c-.132-.074-.243,0-.35.058-.169.1-.335.2-.5.3a1.521,1.521,0,0,1-.948.188,1.753,1.753,0,0,0-.675.057,1.738,1.738,0,0,1-1.329-.111,3.794,3.794,0,0,1-.685-.381,2.391,2.391,0,0,0-.853-.379,2.215,2.215,0,0,1-1.076-.638c-.427-.431-.805-.911-1.226-1.4a1.857,1.857,0,0,1,.216-.209c.607-.414,1.223-.817,1.826-1.237a1.446,1.446,0,0,1,1.16-.219,1.336,1.336,0,0,0,.846-.012c.268-.123.539-.244.8-.386.549-.3,1.1-.6,1.635-.92.735-.434,1.463-.882,2.191-1.329.367-.226.73-.459,1.091-.694.191-.124.377-.256.564-.386a.524.524,0,0,0,.214-.36c.107-.573.22-1.144.324-1.717.047-.257.09-.516.116-.775a1.554,1.554,0,0,0-.053-.3c-.006-.053,0-.13.028-.158a1.182,1.182,0,0,1,.589-.372c.4-.065.8-.139,1.191-.23a2.847,2.847,0,0,0,.641-.223,1.249,1.249,0,0,1,1.051-.05c.268.1.542.185.814.271a.491.491,0,0,0,.459-.063.272.272,0,0,1,.162-.06,1.41,1.41,0,0,0,.565-.124c.182-.06.22-.1.22-.281,0-.22-.011-.44-.021-.66-.013-.287-.031-.574-.045-.861-.012-.254-.074-.3-.314-.223-.088.028-.173.067-.258.1-.047.02-.094.062-.138.059a.573.573,0,0,0-.5.241.24.24,0,0,1-.284.045.272.272,0,0,0-.358.1.3.3,0,0,1-.338.118.261.261,0,0,0-.3.127,1.346,1.346,0,0,1-.686.482,11.316,11.316,0,0,1-1.3.416.748.748,0,0,0-.433.282c-.14.192-.256.185-.4,0-.006-.007-.009-.015-.015-.021a.421.421,0,0,0-.678-.1c-.118.081-.229.173-.341.262-.15.119-.217.109-.332-.046a.561.561,0,0,1-.133-.425,1.365,1.365,0,0,0-.038-.6,2.085,2.085,0,0,1-.012-.754,1.807,1.807,0,0,0-.117-.893,1.245,1.245,0,0,1-.028-.526c.005-.151.041-.3.06-.452a.247.247,0,0,1,.17-.2,11.805,11.805,0,0,0,1.718-1.024,11.326,11.326,0,0,0,1.025-.829c.162-.135.314-.282.464-.43a1.743,1.743,0,0,0,.155-.2,1.464,1.464,0,0,0-.522-.251,3.2,3.2,0,0,1-.949-.34,2.132,2.132,0,0,1-.677-.637,3.425,3.425,0,0,1-.464-.927c-.105-.338-.215-.675-.327-1.01-.07-.21-.044-.276.167-.336a5.374,5.374,0,0,0,.634-.164c.638-.269,1.266-.559,1.9-.84.355-.157.713-.308,1.067-.47.814-.373,1.624-.754,2.441-1.122a.377.377,0,0,0,.265-.428c-.062-.579-.112-1.16-.176-1.738a1.38,1.38,0,0,0-.1-.341.548.548,0,0,1,.053-.532,1.143,1.143,0,0,0,.258-.8c.1-.03.183-.056.263-.076a.269.269,0,0,0,.227-.211.334.334,0,0,1,.213-.235,5.585,5.585,0,0,0,1.377-1.065.559.559,0,0,1,.427-.183c.279.006.562-.032.838,0a1.185,1.185,0,0,1,.989.522,1.257,1.257,0,0,0,.158.2,1.683,1.683,0,0,1,.411.662,1.235,1.235,0,0,1,.058.293.576.576,0,0,0,.173.432.741.741,0,0,1,.227.641,2.941,2.941,0,0,0,.1,1.022,2.407,2.407,0,0,0,.323.012c.311-.031.623-.059.93-.113a1.48,1.48,0,0,1,1.248.357,2.215,2.215,0,0,0,.754.448,1.041,1.041,0,0,1,.7.677,1.3,1.3,0,0,0,.518.672.7.7,0,0,1,.355.706,4.3,4.3,0,0,0,.027.5.862.862,0,0,1-.162.545,4.777,4.777,0,0,0-.3.526,1.46,1.46,0,0,1-.8.7,1.416,1.416,0,0,1-.648.183.281.281,0,0,0-.157.072,6.386,6.386,0,0,1-1.086.586.389.389,0,0,0-.137.106c-.095.115-.082.193.047.265s.273.133.41.2c.227.112.447.243.682.333a2.753,2.753,0,0,0,.634.157c.4.05.806.067,1.208.112a.9.9,0,0,1,.33.121,3.289,3.289,0,0,0,.858.372.256.256,0,0,1,.092.041,3.866,3.866,0,0,1,.91.752c.208.3.391.612.6.908a.7.7,0,0,1,.122.5q-.024.252-.034.505a.748.748,0,0,1-.479.712,3.06,3.06,0,0,1-1.479.257,12.3,12.3,0,0,1-1.385-.109,1.941,1.941,0,0,1-1-.461,1.514,1.514,0,0,0-.322-.195,2.709,2.709,0,0,1-.317-.157,4.471,4.471,0,0,0-1.3-.533,3.458,3.458,0,0,0-.864-.125c-.126-.009-.178.049-.192.213-.017.2-.034.4-.035.6,0,.737-.031,1.475.007,2.21a21.278,21.278,0,0,1-.059,2.169,2.663,2.663,0,0,1-.02.329c-.04.213-.167.27-.363.176a1.357,1.357,0,0,0-.138-.063c-.158-.055-.206-.04-.3.094-.019.028-.032.06-.05.088-.106.161-.219.168-.337.012a2.334,2.334,0,0,1-.154-.263C462.881,241.459,462.86,241.415,462.811,241.321Zm-4.173,14.452a.866.866,0,0,0,.146-.12c.252-.335.5-.676.751-1.01.42-.551.731-1.179,1.2-1.694a1.393,1.393,0,0,0,.128-.189c.165-.255.312-.524.5-.763a13.97,13.97,0,0,0,1.32-2.038,2.515,2.515,0,0,0,.118-.327.851.851,0,0,0-.51.119c-.255.145-.51.29-.768.428a.9.9,0,0,1-.284.1,2.445,2.445,0,0,0-.784.391.758.758,0,0,1-.251.107.766.766,0,0,0-.375.2c-.255.192-.514.378-.77.568a1.748,1.748,0,0,1-.569.389c-.021.005-.034.038-.054.053a2.876,2.876,0,0,1-.248.171c-.2.113-.4.219-.6.327a.374.374,0,0,0-.192.383,8.492,8.492,0,0,1,0,.853.8.8,0,0,0,.293.787c.04.03.07.074.109.106a.971.971,0,0,1,.344.6.43.43,0,0,0,.105.22C458.366,255.555,458.5,255.657,458.638,255.773Zm5.944,2.742.065-.048c.091.04.181.082.273.12.24.1.476.211.721.291a1.027,1.027,0,0,1,.469.217c.156.157.336.1.421-.1a.827.827,0,0,0,.054-.32c-.012-.742-.035-1.484-.045-2.227a.339.339,0,0,0-.2-.327,4.94,4.94,0,0,0-.6-.261.684.684,0,0,0-.348-.02.544.544,0,0,1-.429-.093c-.085-.055-.158-.126-.238-.189-.207-.163-.4-.117-.463.134a4.589,4.589,0,0,1-.535,1.224.612.612,0,0,0-.059.644c.006.012,0,.032-.012.08l-.214.064a.153.153,0,0,0-.112.23.848.848,0,0,0,.174.275q.53.472,1.079.921a.5.5,0,0,0,.367.125C464.918,258.955,464.626,258.791,464.582,258.514Zm-9.994,2.234c.029-.033.067-.057.077-.089.05-.161.1-.322.136-.487a2.167,2.167,0,0,1,.3-.854,2.441,2.441,0,0,0,.128-.247c.027-.048.061-.092.122-.184.1.322.135.605.21.879a3.116,3.116,0,0,0,.374.8c.15-.07.16-.2.188-.306a2.978,2.978,0,0,0-.034-1c-.03-.426-.33-.635-.617-.882l-.184.248a1.677,1.677,0,0,0-.178-.521,1.841,1.841,0,0,0-.472-.305,1.255,1.255,0,0,0-.338.76c.005.481,0,.963.04,1.442A1.362,1.362,0,0,0,454.588,260.748Zm-1.265.14c.063-.042.111-.056.128-.088a3.52,3.52,0,0,0,.269-.538,1.463,1.463,0,0,0,.022-.7,2.183,2.183,0,0,1-.04-.5c.037-.488.094-.975.141-1.462a.5.5,0,0,0,0-.171c-.057-.206-.126-.244-.306-.134a.629.629,0,0,1-.478.089c.024.352.053.688.068,1.025.022.482.03.964.05,1.446q.015.342.058.682A2.7,2.7,0,0,0,453.324,260.888Zm9.011-1.927a1.938,1.938,0,0,0,.183.313c.241.281.488.559.748.822a1.876,1.876,0,0,0,.4.269,1.111,1.111,0,0,0,.244.069c-.042-.366-.412-.5-.472-.823h.35a5.819,5.819,0,0,0-.841-1.019,1.562,1.562,0,0,0-.21-.169Zm6.948-9.818-.2.172-.141-.191c-.005-.006-.006-.017-.01-.024-.036-.064-.05-.171-.145-.144a.285.285,0,0,0-.15.149.67.67,0,0,0,.026.566,2.179,2.179,0,0,1,.168,1.014.961.961,0,0,0,.149.549c.18-.292.019-.635.214-.9.072.32-.088.675.156,1a1.075,1.075,0,0,0,.028-.451c-.011-.134-.014-.269-.018-.4s0-.283-.011-.424c-.014-.167-.048-.333-.06-.5C469.274,249.418,469.283,249.275,469.283,249.144Zm1.946,3.142a.6.6,0,0,0,.049-.385,5.914,5.914,0,0,1,.013-1.185,5.2,5.2,0,0,0-.032-.88.874.874,0,0,0-.1-.338.251.251,0,0,0-.164-.123c-.087-.011-.133.07-.129.154.007.133.03.266.041.4a2.075,2.075,0,0,1,.031.572,2.9,2.9,0,0,0-.057.653c.007.277.022.554.032.831C470.919,252.222,470.947,252.251,471.228,252.286Zm-14.873.981c-.2.04-.132.174-.141.267a1.821,1.821,0,0,0,0,.327c.009.1.035.2.054.295l.082-.007A2.224,2.224,0,0,0,456.355,253.267Zm.632,6.393a.334.334,0,0,0,.023.472C457.115,259.982,457.061,259.841,456.987,259.66Z" transform="translate(-381.709 -222.518)" fill="#fff"/>
      <path id="パス_1661" data-name="パス 1661" d="M412.518,272.464c-.128.018-.233.028-.335.049-.074.015-.143.053-.218.069-.111.024-.192-.027-.2-.139a1.611,1.611,0,0,1,.041-.322c.021-.122.047-.242.076-.391a19.588,19.588,0,0,0-2.459.065c-.035-.115.049-.154.113-.2.28-.2.572-.393.839-.613.339-.279.654-.586.985-.875.364-.317.729-.632,1.1-.937.353-.288.709-.573,1.076-.844a4.644,4.644,0,0,0,.781-.829c.285-.345.573-.69.828-1.057a9.609,9.609,0,0,0,1.073-2.036,3.548,3.548,0,0,0,.092-1.823,5.651,5.651,0,0,0-.408-1.486,6.193,6.193,0,0,0-1.695-2.49,1.607,1.607,0,0,0-.893-.38c-.188-.015-.252.023-.294.2-.095.41-.171.825-.267,1.235-.058.246-.135.488-.215.728a.436.436,0,0,1-.13.185c-.31.261-.617.526-.942.768a.473.473,0,0,0-.224.419c0,.4-.019.8-.052,1.191a2.8,2.8,0,0,1-.129.592c-.1.331-.229.653-.336.983a1.742,1.742,0,0,1-.374.709.2.2,0,0,0-.061.107,2.161,2.161,0,0,1-.292.752c-.259.521-.527,1.038-.813,1.545-.153.271-.364.509-.522.778-.214.364-.378.757-.606,1.112a12.632,12.632,0,0,1-.816,1.1c-.26.323-.537.631-.821.932a5.679,5.679,0,0,1-.511.451.926.926,0,0,1-.845.133,1.175,1.175,0,0,0-.572-.032.794.794,0,0,1-.278.008,1.609,1.609,0,0,0-.6-.007.562.562,0,0,1-.318-.057.665.665,0,0,0-.47,0c-.32.1-.46-.02-.411-.368a1.133,1.133,0,0,0-.093-.616.7.7,0,0,0-.16-.223,4.473,4.473,0,0,0-.437-.385,2.9,2.9,0,0,1-.631-.689,2.356,2.356,0,0,1-.273-.57.383.383,0,0,0-.265-.277.634.634,0,0,1-.43-.427,5.6,5.6,0,0,0-.243-.557.751.751,0,0,0-.422-.346c-.133-.053-.267-.107-.4-.167-.177-.082-.216-.15-.152-.338.087-.256.186-.509.3-.755a1.282,1.282,0,0,0,.1-.739,1.151,1.151,0,0,1,.059-.786.3.3,0,0,0-.015-.058c-.156-.269-.139-.3.144-.417a.447.447,0,0,0,.222-.185,6.2,6.2,0,0,0,.24-.585.335.335,0,0,0,.038-.12,1,1,0,0,1,.407-.781,3,3,0,0,1,.529-.467.461.461,0,0,0,.177-.561,1.433,1.433,0,0,1,.135-1.1,1.1,1.1,0,0,1,.309-.33,2.4,2.4,0,0,0,.766-.762c.011-.019.039-.028.091-.062.034.083.063.155.092.227a2.788,2.788,0,0,0,.143.35c.074.129.147.143.268.051a1.7,1.7,0,0,0,.311-.294,2.245,2.245,0,0,1,.5-.466,1,1,0,0,0,.384-.563l-.227-.075a.423.423,0,0,1,.211-.292c.375-.274.754-.543,1.141-.8a3.939,3.939,0,0,0,.669-.5,2.477,2.477,0,0,1,1.03-.578c.361-.117.733-.2,1.1-.31.3-.092.582-.224.881-.3a5.058,5.058,0,0,1,1.12-.183,6.853,6.853,0,0,0,.923-.143,4.645,4.645,0,0,1,1.281-.041c.143.014.289-.005.431.012.25.031.5.073.748.118.207.038.413.085.618.134a1.768,1.768,0,0,1,.339.1,8.717,8.717,0,0,1,2.5,1.523c.217.21.478.373.713.567.2.169.4.348.6.526a.407.407,0,0,1,.1.144c.12.3.251.591.347.9a.988.988,0,0,1,.026.471.589.589,0,0,0,.077.433,2.06,2.06,0,0,1,.339.758c.027.235.068.468.113.7a1.759,1.759,0,0,0,.117.412.615.615,0,0,0,.215.233c.165.108.2.139.164.322a.937.937,0,0,0,.062.517,1.947,1.947,0,0,1,.11.463.741.741,0,0,1-.072.357.415.415,0,0,0-.048.357,1.2,1.2,0,0,1-.075.84c-.072.2-.16.392-.228.592-.048.142-.073.293-.107.439a1.578,1.578,0,0,1-.076.32,3.375,3.375,0,0,0-.245,1,.268.268,0,0,1-.022.1c-.227.38-.224.872-.572,1.191-.205.188-.414.373-.634.543a.716.716,0,0,0-.251.37c-.05.161-.093.324-.146.484a.763.763,0,0,1-.271.386,1.829,1.829,0,0,0-.617.661.634.634,0,0,1-.189.2.432.432,0,0,0-.186.392,1.089,1.089,0,0,1-.067.341c-.051.179-.121.352-.163.532a1.53,1.53,0,0,1-.24.554.645.645,0,0,1-.18.172,4.026,4.026,0,0,1-.448.237.491.491,0,0,1-.438.012,1.678,1.678,0,0,0-1.235-.039.521.521,0,0,1-.149.022c-.122,0-.173-.06-.152-.177.015-.083.049-.162.069-.244.087-.354-.057-.518-.422-.483-.025,0-.048.017-.073.021-.2.032-.223,0-.17-.2C412.467,272.685,412.487,272.6,412.518,272.464Zm-2.318-13.6c-.022-.227-.035-.454-.066-.68-.041-.3-.109-.342-.4-.271-.025.006-.05.011-.074.019-.3.1-.614.188-.911.306a4.774,4.774,0,0,0-.674.342c-.238.141-.462.307-.693.461a3.907,3.907,0,0,0-.482.326,2.634,2.634,0,0,1-.731.491.65.65,0,0,0-.36.366,2.369,2.369,0,0,1-.454.81,1.192,1.192,0,0,0-.174.218c-.169.283-.331.569-.5.855-.046.08-.08.183-.193.177-.177-.008-.255.111-.33.235-.108.182-.213.366-.312.552a.649.649,0,0,0-.019.633,7.023,7.023,0,0,0,.562,1.075.6.6,0,0,1,.1.177.507.507,0,0,0,.356.333,1.659,1.659,0,0,0,1.514-.238c.328-.223.644-.465.963-.7a1.92,1.92,0,0,0,.648-.89c.071-.19.143-.379.223-.564.119-.278.248-.553.369-.831.152-.348.3-.7.45-1.046a.386.386,0,0,1,.381-.249c.318.013.449-.18.539-.438A4.372,4.372,0,0,0,410.2,258.868Z" transform="translate(-360.187 -238.925)" fill="#fff"/>
      <g id="グループ_1897" data-name="グループ 1897" transform="translate(0 4.778)">
        <path id="パス_1662" data-name="パス 1662" d="M340.414,249.324l.239.264c.147.161.137.245.009.424a1.253,1.253,0,0,0-.335.737.318.318,0,0,1-.059.168c-.169.249-.332.5-.521.738a2.52,2.52,0,0,1-.376.313c-.106.088-.211.178-.315.268a.923.923,0,0,0-.332.642,2.314,2.314,0,0,1-.357,1.063,5.155,5.155,0,0,1-.68.7c-.072.071-.152.133-.22.193.012.042.01.063.021.074.218.229.2.224-.017.453a.269.269,0,0,0-.065.08,4.692,4.692,0,0,1-.507.837.656.656,0,0,1-.08.132c-.23.22-.466.433-.7.652-.162.154-.319.312-.476.471a.3.3,0,0,0-.063.113c-.149.43-.3.858-.438,1.293a1.554,1.554,0,0,0-.049.485c.006.258.036.515.055.773a1.835,1.835,0,0,0,.214.653,1.129,1.129,0,0,1,.132,1.008,2.084,2.084,0,0,0-.171.776,1.207,1.207,0,0,0,.263.8c.038.047.084.088.12.136.123.165.112.218,0,.388a1.064,1.064,0,0,0-.173.368c-.076.379-.12.765-.2,1.145a.985.985,0,0,0,.055.555.89.89,0,0,1,.027.632c-.069.194-.1.4-.185.59a.425.425,0,0,1-.636.237q-.193-.076-.388-.143a1.658,1.658,0,0,0-.182-.042c-.021.03-.051.055-.057.084-.045.21-.078.422-.129.63a1.255,1.255,0,0,0-.06.529c.049.3-.127.471-.435.467a2.019,2.019,0,0,0-.635.078.817.817,0,0,1-.8-.277,3.009,3.009,0,0,1-.843-1.255q-.293-.814-.573-1.632a5.317,5.317,0,0,1-.345-1.69,8.507,8.507,0,0,1,.049-1.337c.03-.2-.038-.248-.236-.208a.356.356,0,0,0-.3.249.544.544,0,0,1-.432.4.246.246,0,0,0-.213.223.249.249,0,0,1-.258.21.558.558,0,0,0-.547.393.491.491,0,0,1-.408.352.414.414,0,0,0-.355.257.492.492,0,0,1-.23.236.885.885,0,0,0-.425.467.646.646,0,0,1-.412.364.539.539,0,0,0-.2.154c-.272.276-.541.555-.811.832a.183.183,0,0,1-.06.049,1.425,1.425,0,0,1-1.142.092,1.334,1.334,0,0,0-.61-.168.582.582,0,0,1-.524-.367,4.943,4.943,0,0,1-.505-1.567c-.029-.256-.045-.515-.094-.767a.594.594,0,0,0-.452-.537.335.335,0,0,1-.247-.332,5.538,5.538,0,0,1,0-.695c.019-.327.062-.652.084-.978.021-.31.009-.623.048-.929a3.881,3.881,0,0,1,.185-.75,1.014,1.014,0,0,1,.53-.609c.186-.09.363-.2.549-.289a.689.689,0,0,0,.372-.41,2.3,2.3,0,0,1,1.035-1.276,1.137,1.137,0,0,0,.327-.389,4.1,4.1,0,0,0,.234-.49c.437-.966.879-1.93,1.31-2.9a8.26,8.26,0,0,0,.578-1.766c.023-.118.072-.23.1-.348a.218.218,0,0,0-.224-.295c-.513-.038-1.026-.066-1.538-.109a11.241,11.241,0,0,1-1.814-.255c-.158-.04-.312-.1-.469-.14a1.673,1.673,0,0,1-.782-.651,1.12,1.12,0,0,1-.286-.7.483.483,0,0,0-.076-.214.938.938,0,0,1-.079-.75c.023-.082.128-.153.21-.2.174-.109.357-.2.538-.3a.746.746,0,0,1,.235-.1.536.536,0,0,0,.458-.335.659.659,0,0,1,.706-.41.854.854,0,0,0,.568-.218,1.376,1.376,0,0,1,.593-.3.635.635,0,0,0,.4-.264.943.943,0,0,1,.226-.208c.147-.106.3-.2.454-.3a1.5,1.5,0,0,1,.61-.266.645.645,0,0,0,.48-.358,1.079,1.079,0,0,1,.624-.5c.462-.186.9-.422,1.347-.651a16.27,16.27,0,0,1,1.716-.9c.195-.073.247-.176.19-.389a4.815,4.815,0,0,1-.044-1.745,5.387,5.387,0,0,0,.036-1.21c-.038-.3,0-.6-.022-.905-.021-.335-.054-.67-.105-1a1.571,1.571,0,0,0-.584-.921c-.137-.12-.2-.229-.116-.4.068-.137.134-.277.21-.41a5.287,5.287,0,0,1,.3-.482,11.349,11.349,0,0,1,.825-1.089,3.2,3.2,0,0,1,1.314-.8,1.987,1.987,0,0,1,.915-.079,4.574,4.574,0,0,1,.935.182,2.522,2.522,0,0,1,1.18.846,8.414,8.414,0,0,0,.562.674,1.009,1.009,0,0,1,.265.785,5.538,5.538,0,0,1-.267,1.313,8.367,8.367,0,0,0-.393,1.681c-.013.161-.1.315-.114.476a11.14,11.14,0,0,0-.184,1.77c.013.233.038.258.277.242s.479-.031.718-.04c.364-.013.514.163.457.528-.028.183.018.252.215.267a.751.751,0,0,1,.422.176.352.352,0,0,1,.125.435c-.024.067-.053.181-.02.214a.649.649,0,0,1,.122.636l.18.1-.059.226c.252-.01.243-.007.314.25a.461.461,0,0,1-.021.373c-.063.113-.012.207.088.295a.76.76,0,0,1-.011-.178.173.173,0,0,1,.074-.12.147.147,0,0,1,.136.032.746.746,0,0,1,.142.269.557.557,0,0,0,.179.3.664.664,0,0,1,.178.8,2.093,2.093,0,0,0-.057.379c-.023.116-.023.265-.1.338a7.739,7.739,0,0,1-.739.641c-.161.125-.352.211-.522.326-.25.169-.48.371-.742.516-.444.246-.907.458-1.362.684-.077.038-.155.074-.233.111a.4.4,0,0,0-.235.347c-.058.669-.116,1.337-.167,2.007a1.509,1.509,0,0,0,.042.3,2.49,2.49,0,0,0,.786-.513c.343-.326.68-.659,1.008-1,.274-.286.528-.592.8-.883.352-.38.716-.747,1.062-1.132.283-.313.547-.644.822-.965a1.573,1.573,0,0,1,.232-.24,2.243,2.243,0,0,0,.647-.829,3.4,3.4,0,0,1,.252-.384c.029-.043.07-.078.1-.122.2-.349.408-.7.6-1.051.1-.181.174-.375.267-.559A.773.773,0,0,1,342,243.9a.284.284,0,0,1,.017.341c-.083.178-.172.355-.247.537a.908.908,0,0,1-.289.447.214.214,0,0,0-.073.276.469.469,0,0,1-.063.441.913.913,0,0,0-.109.314,1.786,1.786,0,0,1-.378.866.822.822,0,0,0-.141.272.27.27,0,0,0,.1.343.819.819,0,0,1,.116.1c.175.167.169.253.012.432a1.423,1.423,0,0,0-.2.325C340.637,248.816,340.539,249.045,340.414,249.324Zm-9.938,2.749h.014c0-.319.006-.639,0-.958,0-.192-.061-.228-.246-.179-.374.1-.746.2-1.119.308-.152.042-.19.1-.128.244a1.259,1.259,0,0,0,.2.332,1.078,1.078,0,0,1,.213,1.02c-.116.485-.25.967-.4,1.443-.177.576-.376,1.145-.561,1.719a.6.6,0,0,0,0,.192.549.549,0,0,0,.192-.013c.468-.218.932-.444,1.4-.664a.481.481,0,0,0,.287-.4c.036-.315.073-.631.088-.948.027-.585.039-1.172.056-1.758C330.479,252.3,330.476,252.185,330.476,252.073Z" transform="translate(-321.733 -232.777)" fill="#fff"/>
        <path id="パス_1663" data-name="パス 1663" d="M372.462,261.812a1.888,1.888,0,0,0,.062-.9c.105-.114.19-.038.274.023s.162.123.255.2l.147-.161c.021.005.052,0,.068.019.105.1.211.2.309.31.168.184.323.381.5.556.2.2.429.375.628.577a1.1,1.1,0,0,1,.215.346c.1.238.188.482.264.728a1.759,1.759,0,0,1,.078.941.854.854,0,0,0,.032.428,1.615,1.615,0,0,1,.032.989c-.028.091-.053.182-.083.272a1.434,1.434,0,0,0-.039.837,1.594,1.594,0,0,1-.1,1.012,4.137,4.137,0,0,0-.116.47.714.714,0,0,1-.107.279,1.029,1.029,0,0,0-.241.533c-.019.117-.066.229-.091.346a.525.525,0,0,0-.018.228.9.9,0,0,1-.2.8.771.771,0,0,0-.167.394,1.11,1.11,0,0,1-.43.793,3.968,3.968,0,0,0-.482.535c-.262.3-.5.616-.789.891a3.06,3.06,0,0,1-.767.563,1.878,1.878,0,0,1-.8.16,1.174,1.174,0,0,0-.854.461.168.168,0,0,0-.045.091.656.656,0,0,1-.373.469.67.67,0,0,0-.3.4,2.792,2.792,0,0,0-.1.4.329.329,0,0,1-.2.278.55.55,0,0,0-.288.31,1.412,1.412,0,0,1-.536.512c-.105.074-.22.137-.32.217-.33.263-.645.545-.984.793-.276.2-.577.372-.872.548-.17.1-.35.186-.525.277a1.871,1.871,0,0,1-.863.237.314.314,0,0,0-.31.259,1.134,1.134,0,0,1-.831.773,6.878,6.878,0,0,0-.746.284,1.875,1.875,0,0,1-1,.152,7.989,7.989,0,0,0-1.085-.02,2.146,2.146,0,0,1-1.361-.382.784.784,0,0,0-.7-.168.418.418,0,0,1-.363-.1,2.244,2.244,0,0,1-.909-1.13.536.536,0,0,0-.439-.385,1.014,1.014,0,0,1-.8-.871c-.06-.277-.139-.551-.209-.826a.759.759,0,0,1-.036-.149c-.005-.178.068-.237.25-.225.421.028.844.077,1.264.068a2.749,2.749,0,0,0,.8-.161.8.8,0,0,0,.546-.576.625.625,0,0,1,.455-.448,8.211,8.211,0,0,0,1-.417.974.974,0,0,0,.3-.339c.076-.11.084-.271.234-.325a.935.935,0,0,1,.533-.049c.15.034.3.055.454.094a.91.91,0,0,0,.645-.114,5.758,5.758,0,0,0,1.715-1.182,2.617,2.617,0,0,1,.443-.314l1.2-.816c.121-.082.252-.153.365-.244s.22-.217.336-.318a1.337,1.337,0,0,1,.366-.28,3.166,3.166,0,0,0,.966-.637,4.6,4.6,0,0,1,.985-.652,6.476,6.476,0,0,0,.8-.57,6.542,6.542,0,0,0,1.048-1.1,4.056,4.056,0,0,1,.406-.4,1.055,1.055,0,0,0,.39-.785c.011-.206.049-.409.069-.614.03-.308.072-.615.079-.924.005-.257-.032-.515-.05-.773a5.53,5.53,0,0,0-.246-1.364c-.119-.359-.243-.716-.363-1.075a.474.474,0,0,1-.022-.254l.321.211c.094-.065.066-.14.038-.212a2.313,2.313,0,0,1-.1-.238c-.011-.042,0-.128.025-.133a.2.2,0,0,1,.158.021c.11.1.2.209.31.31a.989.989,0,0,0,.162.1,1.572,1.572,0,0,0-.295-.845.344.344,0,0,0-.258-.07.641.641,0,0,0-.293.1,7.1,7.1,0,0,0-.7.429,6.913,6.913,0,0,1-.812.494c-.124.076-.233.178-.36.247-.2.107-.4.2-.6.294-.124.059-.251.111-.376.167a.584.584,0,0,1-.095.041,8.38,8.38,0,0,0-1.511.591.473.473,0,0,1-.146.048c-.367.04-.734.076-1.1.112a.248.248,0,0,1-.077,0,1.506,1.506,0,0,0-1.005.13c-.148.067-.227,0-.223-.168a.3.3,0,0,1,.016-.1.687.687,0,0,0-.054-.524.379.379,0,0,0-.327-.26,1.815,1.815,0,0,1-.554-.192.519.519,0,0,0-.246-.054.458.458,0,0,1-.568-.32h-.291a1.911,1.911,0,0,1,.046-.249c.031-.1.076-.193.116-.288.319-.754.61-1.521.968-2.257a4.994,4.994,0,0,1,1.145-1.524,5.7,5.7,0,0,1,1.08-.7c.563-.316,1.138-.609,1.7-.923a4.476,4.476,0,0,0,1.215-1.112c.1-.126.212-.25.315-.378a.448.448,0,0,0,.1-.41c-.039-.161,0-.211.149-.275.056-.024.116-.038.169-.066a.787.787,0,0,1,.917.095,2.057,2.057,0,0,0,1.16.361,1.791,1.791,0,0,1,1.169.544c.233.253.437.533.653.8.081.1.162.2.241.3a.947.947,0,0,1,.152.9,10.071,10.071,0,0,0-.262,1.106,3.267,3.267,0,0,0-.029.745.9.9,0,0,1-.11.5,2.463,2.463,0,0,0-.256.777,1.024,1.024,0,0,1-.661.8c-.23.092-.276.192-.13.38C371.923,261.21,372.181,261.486,372.462,261.812Z" transform="translate(-338.731 -242.736)" fill="#fff"/>
        <path id="パス_1664" data-name="パス 1664" d="M366.19,241.617c-.087.035-.187.08-.29.117-.243.087-.489.167-.729.258-.13.05-.242.083-.343-.057-.067-.093-.215-.112-.228-.263,0-.025-.1-.043-.151-.063a.935.935,0,0,1-.21-.08c-.186-.13-.187-.183-.074-.383.132-.232.265-.466.377-.708a3.035,3.035,0,0,1,.6-.86c.706-.719,1.392-1.457,2.108-2.166.655-.649,1.339-1.268,2.006-1.9.512-.488,1.017-.983,1.527-1.473a.485.485,0,0,0,.115-.547c-.04-.119-.085-.238-.128-.358.223-.172.467.084.672-.054-.029-.126-.093-.243-.068-.334.039-.134.2-.062.3-.09.236-.063.267-.107.218-.359a.663.663,0,0,1,.008-.136c.1,0,.186,0,.276,0a2.887,2.887,0,0,0,.587-.031,2.791,2.791,0,0,1,.846-.079,3.853,3.853,0,0,1,.943.138.989.989,0,0,1,.648.513.59.59,0,0,0,.206.218,2.269,2.269,0,0,0,.412.212,5.293,5.293,0,0,1,1.2.763.826.826,0,0,1,.371.8,1.2,1.2,0,0,0,.075.558,1.572,1.572,0,0,1,.061.767,1.416,1.416,0,0,0,.028.456,1.526,1.526,0,0,1-.131,1.1.721.721,0,0,0-.081.217,2.052,2.052,0,0,1-.743,1.147,5.726,5.726,0,0,1-1.054.7.984.984,0,0,1-.625.114,4.668,4.668,0,0,0-1.287.019.3.3,0,0,0-.076.014,7.173,7.173,0,0,0-1.854.889c-.314.241-.614.5-.935.731-.376.271-.795.489-1.146.787-.282.24-.646.323-.916.57-.127.116-.3.064-.449.051-.2-.018-.39-.063-.585-.1a.244.244,0,0,1-.224-.185.229.229,0,0,0-.2-.177,1.006,1.006,0,0,1-.227-.113c-.03-.017-.056-.066-.079-.062-.252.036-.362-.192-.537-.293C366.313,241.832,366.261,241.709,366.19,241.617Z" transform="translate(-342.843 -232.043)" fill="#fff"/>
      </g>
    </g>
    <g id="グループ_1899" data-name="グループ 1899" transform="translate(322.23 272.402)">
      <path id="パス_1665" data-name="パス 1665" d="M326.74,353.94c.891,0,1.378.529,1.531,1.448h.738l-.07-1.657a4.966,4.966,0,0,0-2.116-.459c-1.56,0-2.535.751-2.535,2a2.07,2.07,0,0,0,1.449,2.005l.932.417c.724.306,1.017.571,1.017,1.045,0,.515-.4.822-1.072.822-.835,0-1.42-.557-1.573-1.685h-.752l.07,1.894a5.152,5.152,0,0,0,2.144.459c1.545,0,2.506-.779,2.506-2.032a2.026,2.026,0,0,0-1.448-1.977l-.933-.418c-.724-.306-1.016-.57-1.016-1.044C325.612,354.26,326.044,353.94,326.74,353.94Z" transform="translate(-323.504 -337.571)" fill="#fff"/>
      <path id="パス_1666" data-name="パス 1666" d="M343.26,358.464V353.6h-2.381v.46c.766.07.933.223.933.835v3.592a1.887,1.887,0,0,1-1.378.627c-.724,0-1.114-.376-1.114-1.49V353.6h-2.186v.46c.543.083.738.278.738.835v3.133c0,1.587.752,2.367,1.963,2.367a2.111,2.111,0,0,0,1.977-1.336v1.072l.2.153,2.311-.334v-.473C343.469,359.48,343.26,359.327,343.26,358.464Z" transform="translate(-329.906 -337.736)" fill="#fff"/>
      <path id="パス_1667" data-name="パス 1667" d="M356.644,353.272c-1.588,0-2.645.891-2.645,2.241a2.064,2.064,0,0,0,.974,1.81c-.849.376-1.253.85-1.253,1.476a1.224,1.224,0,0,0,.891,1.211c-.7.306-1.1.724-1.1,1.295,0,1.058,1.267,1.74,3.119,1.74,2.283,0,3.676-1,3.676-2.575,0-1.17-.738-1.741-2.047-1.741h-2.3c-.571,0-.877-.209-.877-.626a.681.681,0,0,1,.348-.557,3.292,3.292,0,0,0,1.211.209c1.587,0,2.645-.891,2.645-2.242a2.292,2.292,0,0,0-.153-.835h1.17v-1.239h-2.562A3.392,3.392,0,0,0,356.644,353.272Zm-1.5,6.85a3.335,3.335,0,0,0,.557.042h2.075c.835,0,1.183.278,1.183.822,0,.793-.849,1.364-2.186,1.364-1.253,0-1.935-.5-1.935-1.337A1.471,1.471,0,0,1,355.14,360.122Zm1.56-3.021c-.918,0-1.253-.849-1.253-1.685,0-1.017.488-1.49,1.128-1.49.919,0,1.267.849,1.267,1.684C357.841,356.641,357.354,357.1,356.7,357.1Z" transform="translate(-338.069 -337.571)" fill="#fff"/>
      <path id="パス_1668" data-name="パス 1668" d="M372.905,358.478v-5.04h-.46l-1.991.557v.418c.822,0,1,.195,1,.975v3.091c0,1.03-.195,1.128-1.016,1.184v.459h3.452v-.459C373.114,359.606,372.905,359.508,372.905,358.478Z" transform="translate(-346.507 -337.653)" fill="#fff"/>
      <path id="パス_1669" data-name="パス 1669" d="M371.745,348.556a1.03,1.03,0,1,0,1.03-1.031A.987.987,0,0,0,371.745,348.556Z" transform="translate(-347.157 -334.706)" fill="#fff"/>
      <path id="パス_1670" data-name="パス 1670" d="M386.775,358.6v-2.951c0-1.587-.7-2.381-1.963-2.381a2.227,2.227,0,0,0-2.047,1.337v-1.254h-.459l-1.879.557v.418c.724,0,.891.195.891.975v3.3c0,.766-.139.905-.891.975v.459h3.188v-.459c-.7-.07-.849-.251-.849-.975v-3.439a1.863,1.863,0,0,1,1.392-.612c.765,0,1.169.446,1.169,1.392V358.6c0,.738-.139.905-.808.975v.459h3.1v-.459C386.914,359.509,386.775,359.342,386.775,358.6Z" transform="translate(-351.483 -337.571)" fill="#fff"/>
      <path id="パス_1671" data-name="パス 1671" d="M400.245,353.272a3.484,3.484,0,1,0,3.328,3.467A3.221,3.221,0,0,0,400.245,353.272Zm.1,6.279c-1.156,0-1.7-1.531-1.7-3.049,0-1.935.752-2.548,1.49-2.548,1.155,0,1.7,1.546,1.7,3.049C401.832,358.939,401.08,359.551,400.342,359.551Z" transform="translate(-359.695 -337.571)" fill="#fff"/>
      <path id="パス_1672" data-name="パス 1672" d="M423.006,358.507v-2.716c0-1.7-.641-2.519-1.977-2.519a2.2,2.2,0,0,0-2.019,1.35,1.685,1.685,0,0,0-1.754-1.35,2.187,2.187,0,0,0-1.991,1.337v-1.254h-.459l-1.88.557v.418c.724,0,.891.195.891.975v3.3c0,.766-.139.905-.891.975v.459h3.189v-.459c-.7-.07-.85-.251-.85-.975v-3.439a1.693,1.693,0,0,1,1.309-.612c.738,0,1.114.446,1.114,1.267v2.687c0,.821-.139,1-.808,1.072v.459h3.077v-.459c-.668-.07-.821-.264-.821-1.072v-2.8c0-.209-.014-.4-.028-.6a1.639,1.639,0,0,1,1.295-.557c.738,0,1.156.446,1.156,1.3v2.659c0,.821-.139,1-.808,1.072v.459h3.1v-.459C423.159,359.509,423.006,359.315,423.006,358.507Z" transform="translate(-367.681 -337.571)" fill="#fff"/>
      <path id="パス_1673" data-name="パス 1673" d="M440.187,353.272a3.484,3.484,0,1,0,3.327,3.467A3.221,3.221,0,0,0,440.187,353.272Zm.1,6.279c-1.156,0-1.7-1.531-1.7-3.049,0-1.935.752-2.548,1.49-2.548,1.156,0,1.7,1.546,1.7,3.049C441.774,358.939,441.022,359.551,440.284,359.551Z" transform="translate(-379.603 -337.571)" fill="#fff"/>
      <path id="パス_1674" data-name="パス 1674" d="M457.216,353.272c-.877,0-1.517,1.1-1.851,2.046v-1.963h-.459l-1.88.557v.418c.724,0,.891.195.891.975v3.3c0,.766-.139.905-.891.975v.459h3.467v-.459c-.9-.07-1.128-.251-1.128-.975v-2.269a5.026,5.026,0,0,1,.988-1.879c.376.167.432.821,1.03.821a.925.925,0,0,0,.905-.988A1,1,0,0,0,457.216,353.272Z" transform="translate(-387.667 -337.571)" fill="#fff"/>
      <path id="パス_1675" data-name="パス 1675" d="M469.707,348.556a1.031,1.031,0,1,0-1.031,1.03A.987.987,0,0,0,469.707,348.556Z" transform="translate(-394.954 -334.706)" fill="#fff"/>
      <path id="パス_1676" data-name="パス 1676" d="M468.806,358.478v-5.04h-.459l-1.991.557v.418c.822,0,1,.195,1,.975v3.091c0,1.03-.2,1.128-1.016,1.184v.459H469.8v-.459C469.016,359.606,468.806,359.508,468.806,358.478Z" transform="translate(-394.304 -337.653)" fill="#fff"/>
      <path id="パス_1677" data-name="パス 1677" d="M328.008,330.024v-7.017h1.082c1.116,0,1.32.239,1.554,1.825l.007.047h.881l-.115-2.911h-.755l-.014.035c-.084.215-.12.242-.559.242h-5.935c-.4,0-.461-.025-.546-.242l-.013-.035h-.755l-.115,2.911h.867l.007-.047c.249-1.587.454-1.826,1.568-1.826h1.082v7.017c0,.965-.141,1.069-1.514,1.124l-.053,0v.634h4.894v-.634l-.053,0C328.15,331.094,328.008,330.989,328.008,330.024Z" transform="translate(-322.724 -321.969)" fill="#fff"/>
      <path id="パス_1678" data-name="パス 1678" d="M346.2,331.3l-.052,0v.634h3.965V331.3l-.051,0c-.507-.038-.7-.275-1.215-1.492l-3.147-7.5-.014-.034h-1.838l.439,1.054L341.578,330c-.42,1.016-.577,1.258-1.159,1.3l-.051,0v.633h3.146V331.3l-.052,0c-.811-.042-1.085-.179-1.085-.542a2,2,0,0,1,.163-.66l.43-1.116h3.656l.429,1.02a2.013,2.013,0,0,1,.191.714C347.246,331.1,346.962,331.258,346.2,331.3Zm.074-3.189h-2.957l1.432-3.667Z" transform="translate(-331.518 -322.12)" fill="#fff"/>
      <path id="パス_1679" data-name="パス 1679" d="M368.309,329.358a3.056,3.056,0,0,0-2.012-2.836l-1.345-.693c-.954-.5-1.259-.884-1.259-1.588,0-.778.569-1.263,1.484-1.263,1.213,0,1.908.769,2.122,2.352l.007.047h.866v-3.118h-.75l-.01.042c-.1.383-.181.4-.2.4a.757.757,0,0,1-.236-.1,3.629,3.629,0,0,0-1.871-.466c-1.884,0-3.009.949-3.009,2.537a3.114,3.114,0,0,0,2.04,2.919l1.3.665c.879.452,1.288.992,1.288,1.7,0,.8-.531,1.262-1.456,1.262-1.32,0-2.141-.937-2.372-2.712l-.007-.048h-.879v3.479h.764l.01-.043c.082-.359.167-.4.224-.4a.631.631,0,0,1,.219.1,3.771,3.771,0,0,0,2.042.473C367.174,332.061,368.309,331.05,368.309,329.358Z" transform="translate(-342.307 -322.051)" fill="#fff"/>
      <path id="パス_1680" data-name="パス 1680" d="M385.928,321.969l-.014.035c-.084.215-.12.242-.559.242h-5.935c-.4,0-.46-.025-.545-.242l-.014-.035h-.756l-.115,2.911h.866l.008-.047c.248-1.587.454-1.826,1.568-1.826h1.082v7.017c0,.965-.141,1.069-1.514,1.124l-.053,0v.634h4.894v-.634l-.053,0c-1.372-.055-1.514-.16-1.514-1.124v-7.017h1.082c1.116,0,1.32.239,1.555,1.825l.007.047h.881l-.115-2.911Z" transform="translate(-350.27 -321.969)" fill="#fff"/>
      <path id="パス_1681" data-name="パス 1681" d="M403.345,331.426l-.052,0c-1.133-.054-1.237-.147-1.237-1.11v-6.046c0-.963.1-1.056,1.237-1.11l.052,0v-.635h-4.339v.635l.052,0c1.134.054,1.238.147,1.238,1.11v6.046c0,.963-.1,1.056-1.238,1.11l-.052,0v.634h4.339Z" transform="translate(-360.744 -322.244)" fill="#fff"/>
      <path id="パス_1682" data-name="パス 1682" d="M415.746,331.425l-.053,0c-1.335-.054-1.473-.2-1.473-1.609V325.26l5.312,6.814h1.191v-7.515c0-1.164.15-1.361,1.071-1.4l.053,0v-.635h-3.6v.635l.052,0c1.314.053,1.528.249,1.528,1.4v4.915l-5.351-6.931-.017-.022H411.92v.63l.048.007c.5.066.795.271,1.353.949v5.707c0,1.419-.113,1.555-1.348,1.609l-.053,0v.634h3.826Z" transform="translate(-367.18 -322.244)" fill="#fff"/>
      <path id="パス_1683" data-name="パス 1683" d="M443.818,328l.052,0v-.73h-4.436V328l.053,0c1.611.056,1.763.227,1.763,1v.957c0,.85-.645,1.262-1.97,1.262-1.942,0-3.148-1.562-3.148-4.077,0-2.6,1.239-4.16,3.315-4.16a2.5,2.5,0,0,1,2.677,2.353l.008.045h.878v-3.118h-.768l-.007.048c-.046.331-.116.4-.223.4a1.2,1.2,0,0,1-.29-.1,5.882,5.882,0,0,0-2.372-.471c-3.143,0-5.255,2.028-5.255,5.047,0,2.919,2.068,4.88,5.144,4.88a6.517,6.517,0,0,0,3.747-1.077l.024-.017v-1.693C443.01,328.208,443.192,328.036,443.818,328Z" transform="translate(-378.232 -322.051)" fill="#fff"/>
      <path id="パス_1684" data-name="パス 1684" d="M467.1,327.082c1.8-.17,2.642-.894,2.642-2.26,0-1.527-1.157-2.3-3.438-2.3H461.77v.635l.052,0c1.133.054,1.237.147,1.237,1.11v6.046c0,.963-.1,1.056-1.237,1.11l-.052,0v.634h4.672c2.244,0,3.48-.935,3.48-2.634C469.922,327.922,469.048,327.189,467.1,327.082Zm-1.406-.387h-.874v-3.426h1.138c1.261,0,1.928.595,1.928,1.72C467.885,326.153,467.189,326.695,465.693,326.695Zm2.372,2.759a1.7,1.7,0,0,1-1.776,1.914c-.962,0-1.47-.436-1.47-1.263v-2.551C467.426,327.586,468.065,327.964,468.065,329.454Z" transform="translate(-392.026 -322.244)" fill="#fff"/>
      <path id="パス_1685" data-name="パス 1685" d="M487.756,329.807l-3.147-7.5-.014-.034h-1.838l.439,1.054L480.485,330c-.42,1.016-.577,1.258-1.159,1.3l-.051,0v.633h3.146V331.3l-.052,0c-.811-.042-1.085-.179-1.085-.542a2,2,0,0,1,.163-.66l.43-1.116h3.656l.429,1.02a2.007,2.007,0,0,1,.191.714c0,.384-.283.542-1.044.583l-.052,0v.634h3.965V331.3l-.051,0C488.464,331.261,488.271,331.024,487.756,329.807Zm-2.573-1.7h-2.957l1.433-3.667Z" transform="translate(-400.75 -322.12)" fill="#fff"/>
      <path id="パス_1686" data-name="パス 1686" d="M509.772,331.425a1.8,1.8,0,0,1-.887-.743l-2.614-3.485a2.52,2.52,0,0,0,2.1-2.417c0-1.5-1.049-2.26-3.119-2.26H500.4v.635l.052,0c1.134.054,1.238.147,1.238,1.11v6.046c0,.963-.1,1.056-1.238,1.11l-.052,0v.634h4.353v-.634l-.052,0c-1.052-.054-1.251-.233-1.251-1.124v-2.9h.928l3.173,4.635.017.024h2.247v-.622Zm-6.326-8.156h1.345c1.2,0,1.734.492,1.734,1.6,0,1.137-.783,1.789-2.15,1.789h-.929Z" transform="translate(-411.277 -322.244)" fill="#fff"/>
    </g>
  </g>
</svg>
