<svg xmlns="http://www.w3.org/2000/svg" width="3.478" height="32.563" viewBox="0 0 3.478 32.563">
  <path id="パス_700" data-name="パス 700" d="M1.886,32.3s.189.129.426.258c.5-.052.394-.1.957-.509a3.017,3.017,0,0,0-.331-.429A3.49,3.49,0,0,1,2.389,29.4v-.344l.047-.859.237-1.976V23.688l.142-1.031.143-2.1-.066-2.577c.095-1.289.095-2.277.142-6.057V8.738c0-.43.255-.687.208-.945a14.8,14.8,0,0,1,.047-1.8A3.353,3.353,0,0,1,3.43,4.426a2.072,2.072,0,0,0,.048-.6C3.478,2.02,2.927,0,1.933,0c-.71,0-.661,1.81-.276,4.6.081,2.54-.074,3.909-.074,7.174,0,1.9-.061,4.258-.2,6.615-.259,4.536-.4,9.054-1.293,10.191A1.163,1.163,0,0,0,0,28.963a2.205,2.205,0,0,0,.664,1.564C1.016,30.964,1.886,32.3,1.886,32.3Z" fill="#fff"/>
</svg>
