<svg xmlns="http://www.w3.org/2000/svg" width="14.25" height="14.25" viewBox="0 0 14.25 14.25">
  <path id="パス_8851" data-name="パス 8851" d="M11.1-16.625h5.529V-11.1h-1.6v-2.82L7.273-6.16,6.16-7.273l7.756-7.756H11.1ZM15.029-3.971V-9.5h1.6v5.529a1.529,1.529,0,0,1-.482,1.113,1.529,1.529,0,0,1-1.113.482H3.971a1.54,1.54,0,0,1-1.132-.464,1.54,1.54,0,0,1-.464-1.132V-15.029a1.54,1.54,0,0,1,.464-1.132,1.54,1.54,0,0,1,1.132-.464H9.5v1.6H3.971V-3.971Z" transform="translate(-2.375 16.625)" fill="#fff"/>
</svg>
