<svg id="グループ_54" data-name="グループ 54" xmlns="http://www.w3.org/2000/svg" width="20" height="20" viewBox="0 0 20 20">
  <path id="パス_44" data-name="パス 44" d="M17.033,0H2.967A2.974,2.974,0,0,0,0,2.967V17.033A2.974,2.974,0,0,0,2.967,20H17.033A2.974,2.974,0,0,0,20,17.033V2.967A2.974,2.974,0,0,0,17.033,0Zm1.3,17.033a1.3,1.3,0,0,1-1.3,1.3H2.967a1.3,1.3,0,0,1-1.3-1.3V2.967a1.3,1.3,0,0,1,1.3-1.3H17.033a1.3,1.3,0,0,1,1.3,1.3Z" fill="#fff"/>
  <path id="パス_45" data-name="パス 45" d="M10,6a4,4,0,1,0,4,4A4,4,0,0,0,10,6Zm0,6.67A2.668,2.668,0,1,1,12.67,10,2.668,2.668,0,0,1,10,12.67Z" transform="translate(-0.002 -0.002)" fill="#fff"/>
  <circle id="楕円形_1" data-name="楕円形 1" cx="1.501" cy="1.501" r="1.501" transform="translate(13.761 3.238)" fill="#fff"/>
</svg>
