<svg xmlns="http://www.w3.org/2000/svg" width="5.233" height="48.997" viewBox="0 0 5.233 48.997">
  <g id="グループ_684" data-name="グループ 684" transform="translate(5.233 48.997) rotate(180)">
    <path id="パス_700" data-name="パス 700" d="M2.837,48.609s.285.195.641.388c.75-.078.592-.147,1.44-.765a4.54,4.54,0,0,0-.5-.646,5.252,5.252,0,0,1-.825-3.347v-.517l.071-1.292.356-2.973V35.643l.213-1.552.215-3.167-.1-3.878c.143-1.94.143-3.426.213-9.114V13.148c0-.647.384-1.034.313-1.422a22.273,22.273,0,0,1,.071-2.715A5.045,5.045,0,0,1,5.162,6.66a3.118,3.118,0,0,0,.072-.906C5.233,3.04,4.4,0,2.909,0c-1.069,0-.995,2.724-.415,6.917.122,3.822-.112,5.882-.112,10.794,0,2.852-.092,6.407-.295,9.954C1.7,34.49,1.494,41.288.143,43A1.749,1.749,0,0,0,0,43.581a3.318,3.318,0,0,0,1,2.353C1.529,46.592,2.837,48.609,2.837,48.609Z" fill="#fff"/>
  </g>
</svg>
