<svg xmlns="http://www.w3.org/2000/svg" width="30" height="4" viewBox="0 0 30 4">
  <g id="グループ_259" data-name="グループ 259" transform="translate(30) rotate(90)">
    <path id="パス_700" data-name="パス 700" d="M2.169.238S2.387.119,2.659,0c.573.048.453.09,1.1.469a2.974,2.974,0,0,1-.381.4,2.709,2.709,0,0,0-.63,2.049V3.23l.054.791.272,1.82V8.176l.163.95L3.4,11.066,3.325,13.44c.109,1.188.109,2.1.163,5.581V21.95c0,.4.293.633.239.871a10.939,10.939,0,0,0,.054,1.662,2.5,2.5,0,0,0,.163,1.44A1.543,1.543,0,0,1,4,26.477C4,28.139,3.367,30,2.224,30c-.817,0-.76-1.668-.317-4.235.093-2.34-.085-3.6-.085-6.609,0-1.746-.07-3.923-.225-6.094C1.3,8.882,1.142,4.72.109,3.673A.9.9,0,0,1,0,3.317c0-.435.1-.78.763-1.441C1.169,1.473,2.169.238,2.169.238Z" transform="translate(0 0)" fill="#fff"/>
  </g>
</svg>
