<svg xmlns="http://www.w3.org/2000/svg" width="85" height="104.895" viewBox="0 0 85 104.895">
  <g id="グループ_1894" data-name="グループ 1894" transform="translate(-305.438 -239.843)">
    <path id="パス_1633" data-name="パス 1633" d="M334.664,259.909s-12.159-2.266-17.642,5.518c-3.749,5.323-2.064,12.2-.434,17.846.558,1.929.329.985,1.04,3.125,1.741,5.242,2.822,10.749-.01,14.766-3.34,4.738-12.181,3.733-12.181,3.733h0s11.623,4.816,20.994.495c6.973-3.216,8.659-9.366,5.736-18.672-1.717-5.465-2.041-6.406-3.2-10.314C327.79,272.462,323.895,261.808,334.664,259.909Z" transform="translate(0 -9.347)" fill="#fff"/>
    <path id="パス_1634" data-name="パス 1634" d="M479.539,257.679s-12.211-2.233-17.52,5.671c-3.63,5.4-1.792,12.246-.037,17.851.6,1.916.335,1.222,1.093,3.347,1.857,5.2,3.059,10.684.318,14.763-3.234,4.811-12.1,4-12.1,4h0s11.727,4.557,21,.029c6.9-3.37,8.45-9.556,5.321-18.795-1.838-5.426-2.167-6.6-3.416-10.485C472.94,270.145,468.8,259.234,479.539,257.679Z" transform="translate(-89.1 -7.994)" fill="#fff"/>
    <g id="グループ_1892" data-name="グループ 1892" transform="translate(322.046 314.973)">
      <path id="パス_1635" data-name="パス 1635" d="M365.988,463.89a36.178,36.178,0,0,0-7.109-.7,39.868,39.868,0,0,0-4.721.225,30.754,30.754,0,0,0-3.091.533,3.485,3.485,0,0,1-.871.169,1.218,1.218,0,0,1-.7-.337c-.253-.253-.394-.45-.394-.59a1.552,1.552,0,0,1,.225-.7,2.09,2.09,0,0,0,.253-.9,19.019,19.019,0,0,0-.421-3.484l-.141-.815a10.434,10.434,0,0,0-.646-2.36,2.686,2.686,0,0,1-.253-1.012v-.056c0-.309.169-.449.534-.449.59,0,2.5.759,2.5,1.574a17.187,17.187,0,0,0-.169,2.22,42.479,42.479,0,0,0,.422,4.3c.028.309.055.365.365.337,1.939-.113,3.821-.169,5.619-.2.141-2.023.253-3.934.253-5.7,0-1.18-.056-2.725-.141-4.636a6.889,6.889,0,0,0-.478-2.445,2.877,2.877,0,0,1-.2-.955.53.53,0,0,1,.591-.534c.533-.028,2.838.646,2.725,1.264a1.814,1.814,0,0,1-.169.7,4.027,4.027,0,0,0-.337,1.517c-.085,1.1-.112,2.388-.112,3.85,0,1.994.056,4.27.2,6.912l3.484.14c.59.028,1.377.084,2.388.084.365,0,.421-.084.449-.31a33,33,0,0,0,.421-5.647,4.276,4.276,0,0,0-.225-1.236,2.633,2.633,0,0,1-.168-.787c0-.421.168-.618.505-.618.59,0,2.445.7,2.445,1.49a16.531,16.531,0,0,0-.73,3.343c-.141,1.349-.253,2.978-.253,3.794,0,.562.2,1.236.2,1.461,0,.477-.421.731-1.293.731Z" transform="translate(-348.117 -446.02)" fill="#fff"/>
      <path id="パス_1636" data-name="パス 1636" d="M433.729,461.914c-1.4,0-4.58-1.573-4.58-2.05,0-.084.029-.084.084-.084a13.179,13.179,0,0,0,1.377.141,11.5,11.5,0,0,0,7.419-2.7c.337-.309.7-.59.7-.815,0-.113,0-.169-.113-.169-.253,0-2.444.2-3.85.366-1.6.2-2.135.365-2.725.365a.63.63,0,0,1-.618-.646c0-.591,1.433-1.377,1.658-1.406.449-.028.786.056,1.517.056s4.187-.225,4.637-.337c.815-.2,2,.9,1.826,1.517s-.562.7-.983,1.209C437.607,460.2,435.135,461.914,433.729,461.914Zm9.554-7.221c-.028.45-.028.956-.028,1.4,0,.618,0,1.125.028,1.462.113,1.432.45,2.866.45,3.484-.028.9-.675,1.855-1.209,1.855-.59,0-1.264-1.32-1.264-1.967,0-.73.281-1.855.366-3.513.084-1.489.084-1.573.084-2.753a11.041,11.041,0,0,0-.084-1.433c-3.822.056-4.412.731-5.929.731-.337,0-.983-.844-.983-1.265a4.232,4.232,0,0,0,.281-1.151c-.14-3.879-1.04-4.524-1.012-4.721a.475.475,0,0,1,.505-.449c.421,0,.984.449,1.771.365l3.035-.141a1.594,1.594,0,0,0,.421-1.18,8.3,8.3,0,0,0-.253-1.349c0-.112.056-.168.2-.168.675,0,2.332.9,2.332,1.517a1.008,1.008,0,0,1-.337.7,4.517,4.517,0,0,0-.505.421c.337,0,.674-.028,1.011-.028,1.883-.029,3.821.056,4.777.084.759.028,1.236-.056,1.967-.056s1.8.815,1.8,1.237a15.38,15.38,0,0,0-.506,1.574,26.478,26.478,0,0,0-.168,3.513,1.193,1.193,0,0,1-1.012.983c-1.011,0-1.04-.365-2.7-.534-.449-.028-1.883-.056-2.978-.084Zm5.114-6.041c.029-.393-.2-.59-.646-.618-1.6-.141-3.624-.169-5.563-.169a41.977,41.977,0,0,0-5.7.394l.14,1.152c1.406-.14,3.934-.225,5.7-.225,1.826,0,4.608.056,6.013.169Zm-.225,2.107a52.847,52.847,0,0,0-5.844-.225c-1.967.028-4.1.2-5.564.365.056.534.084.983.084,1.152.534-.056,3.4-.2,5.564-.225,1.04-.028,4.271.112,5.535.168Zm8.317,9.5c.085,0,.112.029.112.141,0,.028-.028.084-.112.112a15.72,15.72,0,0,1-4.945,1.658c-1.49.056-3.878-2.163-5.424-3.821-1.516-1.6-2.079-2.81-2.079-3.372,0-.253.056-.337.225-.365.141-.028.309.14.674.505.506.506.955.928,1.433,1.35,3.063-1.209,4.552-1.939,4.552-2.642a.461.461,0,0,1,.478-.505,3.216,3.216,0,0,1,2.332,1.939c0,.421-.45.421-.647.478-1.91.562-3.737,1.18-5.563,1.686a11.825,11.825,0,0,0,8.458,2.838Z" transform="translate(-397.617 -443.903)" fill="#fff"/>
    </g>
    <g id="グループ_1893" data-name="グループ 1893" transform="translate(321.919 338.706)">
      <path id="パス_1637" data-name="パス 1637" d="M351.1,506.807c0-.758-.479-1.113-1.284-1.113a.9.9,0,0,0-.99.819c0,1.237,2.877,1.192,2.877,2.877a1.875,1.875,0,0,1-2.088,1.824,3.562,3.562,0,0,1-.665-.069,2.037,2.037,0,0,0-1.16.031,5.011,5.011,0,0,0,.247-1.741h.278v.124a1.241,1.241,0,0,0,1.338,1.284c.587,0,1.26-.325,1.26-.928,0-1.423-2.815-1.191-2.815-3a1.524,1.524,0,0,1,1.7-1.547,3.038,3.038,0,0,1,.772.077,1.5,1.5,0,0,0,.387.077.815.815,0,0,0,.325-.061.683.683,0,0,1,.255-.062,8.222,8.222,0,0,0-.162,1.408Z" transform="translate(-347.79 -505.183)" fill="#fff"/>
      <path id="パス_1638" data-name="パス 1638" d="M366.88,510.506c.425,0,.765-.418.99-.943.092-.209,1.655-3.542,1.655-3.836,0-.154-.093-.232-.279-.232v-.324c.959,0,.874-.279,1.485-.279a.771.771,0,0,0-.093.371,1.9,1.9,0,0,0,.139.666l1.478,3.812c.224.587.533.765.865.765v.325a9.98,9.98,0,0,0-2.482,0v-.325c.534,0,.688-.185.688-.456,0-.348-.1-.425-.51-1.461-.3-.031-.827-.047-1.33-.047a4.935,4.935,0,0,0-.72.047c-.355.9-.511,1.067-.511,1.415,0,.239.24.5.742.5v.325a7.282,7.282,0,0,0-2.118,0Zm2.969-4.577-.9,2.211c.278.015.549.03.827.03.3,0,.6-.016.9-.03Z" transform="translate(-359.451 -504.892)" fill="#fff"/>
      <path id="パス_1639" data-name="パス 1639" d="M391.416,505.608a7.872,7.872,0,0,0,.943.077,2.719,2.719,0,0,0,.534-.077,1.625,1.625,0,0,0,.479.7l3.217,3.34v-2.413c0-1.052-.293-1.3-.843-1.3v-.324c.193,0,.688.077.983.077s.781-.077,1.005-.077v.324c-.511,0-.773.247-.773,1.3v2.938c0,.542.031.836.031,1.191h-.2l-4.161-4.47v2.753c0,1.052.263,1.3.928,1.3v.325a7.444,7.444,0,0,0-2.142,0v-.325c.549,0,.843-.247.843-1.3V507.1c0-.9-.464-1.168-.843-1.168Z" transform="translate(-374.44 -505.329)" fill="#fff"/>
      <path id="パス_1640" data-name="パス 1640" d="M417.466,514.45h2.072v.758h-2.072Z" transform="translate(-390.353 -510.731)" fill="#fff"/>
      <path id="パス_1641" data-name="パス 1641" d="M436.425,506.807c0-.758-.479-1.113-1.284-1.113a.9.9,0,0,0-.99.819c0,1.237,2.877,1.192,2.877,2.877a1.874,1.874,0,0,1-2.088,1.824,3.566,3.566,0,0,1-.665-.069,2.037,2.037,0,0,0-1.16.031,5.011,5.011,0,0,0,.247-1.741h.279v.124a1.24,1.24,0,0,0,1.337,1.284c.587,0,1.26-.325,1.26-.928,0-1.423-2.815-1.191-2.815-3a1.524,1.524,0,0,1,1.7-1.547,3.044,3.044,0,0,1,.773.077,1.493,1.493,0,0,0,.387.077.819.819,0,0,0,.325-.061.679.679,0,0,1,.254-.062,8.222,8.222,0,0,0-.162,1.408Z" transform="translate(-399.913 -505.183)" fill="#fff"/>
      <path id="パス_1642" data-name="パス 1642" d="M454.372,506.776c0-.774-.162-.943-.7-.99v-.324h.016c.348,0,.65.015,1.052.038s.905.038,1.67.038a4.9,4.9,0,0,0,1.9-.17c-.07.247-.024,1.1-.093,1.322h-.232c0-.6-.325-.781-1.639-.781a9.288,9.288,0,0,0-1.052.061v2.057c.363.016.6.031.9.031.974,0,1.206-.232,1.222-.711h.278a6.537,6.537,0,0,0,0,1.794h-.278c-.016-.479-.247-.711-1.222-.711-.294,0-.533.015-.9.03v1.361c0,.758.278.851,1.021.851,1.175,0,1.964-.279,1.964-1.091h.278c0,.611-.17.751-.17,1.632a1.7,1.7,0,0,0-.727-.147c-.386-.023-1.036-.023-2.258-.023-.75,0-1.16.016-1.4.038a2.85,2.85,0,0,0-.318.039h-.016V510.8c.534-.047.7-.216.7-.99Z" transform="translate(-412.472 -505.183)" fill="#fff"/>
      <path id="パス_1643" data-name="パス 1643" d="M476.008,505.608a7.871,7.871,0,0,0,.943.077,2.715,2.715,0,0,0,.533-.077,1.629,1.629,0,0,0,.479.7l3.217,3.34v-2.413c0-1.052-.293-1.3-.843-1.3v-.324c.194,0,.689.077.983.077s.781-.077,1.006-.077v.324c-.511,0-.774.247-.774,1.3v2.938c0,.542.031.836.031,1.191h-.2l-4.161-4.47v2.753c0,1.052.263,1.3.928,1.3v.325a7.445,7.445,0,0,0-2.142,0v-.325c.549,0,.843-.247.843-1.3V507.1c0-.9-.464-1.168-.843-1.168Z" transform="translate(-426.114 -505.329)" fill="#fff"/>
    </g>
    <path id="パス_1644" data-name="パス 1644" d="M405.334,233.285s-12.362-2.657-17.944,5.056c-3.817,5.275-2.219,12.176-.66,17.839.533,1.936,3.213,11.148,3.9,13.3,1.674,5.263,2.685,10.784-.2,14.765-3.4,4.695-12.227,3.577-12.227,3.577h0s11.561,4.963,20.986.762c7.014-3.126,8.778-9.255,5.973-18.6-1.647-5.486-4.856-16.59-5.969-20.512C398.068,245.513,394.552,234.464,405.334,233.285Z" transform="translate(-44.449 7)" fill="#fff"/>
  </g>
</svg>
