<svg xmlns="http://www.w3.org/2000/svg" width="72.861" height="93.36" viewBox="0 0 72.861 93.36">
  <g id="グループ_1909" data-name="グループ 1909" transform="translate(-361.111 -220.969)">
    <g id="グループ_1901" data-name="グループ 1901" transform="translate(361.111 220.969)">
      <path id="パス_1687" data-name="パス 1687" d="M446.6,300.428c-.3,0-.3.035-.6.035s-.3,0-.6,0-.3.058-.6.058-.3-.034-.6-.034-.3-.027-.6-.027-.3.015-.6.015-.3-.088-.6-.088-.3.1-.606.1-.3-.052-.6-.052-.3.076-.6.076-.3-.145-.6-.145-.3.049-.607.049-.3-.027-.606-.027-.3-.021-.606-.021-.3.024-.608.024-.3.119-.606.119-.3-.055-.606-.055-.3.077-.606.077-.3-.055-.608-.055-.305.014-.609.014-.306-.075-.611-.075-.306.074-.611.074-.3-.027-.6-.027-.3-.053-.6-.053-.3.076-.6.076-.3.058-.6.058-.3-.159-.6-.159-.3.156-.6.156-.3-.032-.6-.032-.3-.117-.6-.117-.3.16-.6.16-.3-.037-.6-.037-.3.013-.6.013-.3-.107-.6-.107-.3.027-.6.027-.3-.074-.6-.074-.3-.012-.6-.012-.3.132-.606.132-.217-.077-.521-.077-.587-.077-.7.033-.069.308-.069.606.091.3.091.6.05.3.05.6.038.3.038.6-.1.3-.1.6-.075.3-.075.6.138.3.138.6.023.3.023.6-.047.3-.047.6-.007.3-.007.6.052.3.052.6-.147.3-.147.6.086.3.086.6.053.3.053.6.019.3.019.6-.038.3-.038.605-.124.3-.124.608.182.3.182.607-.014.311-.014.622-.2.311-.2.622.122.309.122.617.005.309.005.618-.128.31-.128.62.086.311.086.622-.019.312-.019.624.051.311.051.622-.011.311-.011.622-.047.311-.047.622-.055.312-.055.625.064.312.064.624.028.312.028.623.041.313.041.626-.107.312-.107.625-.012.312-.012.624.021.312.021.623.057.313.057.626-.041.314-.041.628.132.315.132.629a3.2,3.2,0,0,1-.051.428c.006.2.265.178.568.178s.3-.024.606-.024.3.085.608.085.3-.036.608-.035v-.108c.3,0,.3.133.6.133s.3-.1.605-.1.3.019.606.019.3.1.607.1.3.013.608.013.3-.022.606-.022.3-.064.606-.064.3.027.605.027.3.1.605.1.3-.149.605-.149.3.008.605.008.3.109.606.109.3-.048.606-.048.3.008.608.008.3-.11.608-.11.3.137.608.137.3-.1.606-.1.3.1.606.1.3-.147.606-.147.3.018.607.018.3.009.608.009.3.135.609.135.3-.065.607-.065.3-.053.608-.053.3-.061.608-.061.3.1.6.1.3-.031.6-.031.3.1.605.1.3-.085.608-.085.3.068.609.068.3-.137.608-.137.3.029.606.029.3-.009.608-.009.3.072.611.072.3-.062.609-.062.3.114.609.114.305-.007.611-.007.305-.166.61-.166.305.073.61.073.3.009.608.009.306.069.612.069.306-.045.613-.045.307-.074.614-.074.307.146.614.146v-.154c.291,0,.291.088.582.088s.291.036.581.036.292-.015.584-.015.292-.058.583-.058h.582c.291,0,.291.038.581.038s.292-.074.585-.074.293.041.585.041.293.068.588.068.528.024.585-.043a1.551,1.551,0,0,0,.047-.609c0-.306-.061-.306-.061-.611s.095-.306.095-.611-.161-.306-.161-.611.037-.306.037-.611.077-.305.077-.611-.119-.306-.119-.611.149-.306.149-.612,0-.307,0-.613.032-.307.032-.614-.074-.307-.074-.613.036-.306.036-.612,0-.306,0-.612-.007-.306-.007-.612-.044-.306-.044-.613-.093-.307-.093-.614.1-.307.1-.614-.1-.307-.1-.614.158-.306.158-.613-.082-.307-.082-.614-.075-.3-.075-.609.1-.3.1-.609-.093-.306-.093-.611.018-.307.018-.614.051-.307.051-.615.01-.307.01-.614-.072-.306-.072-.612.136-.306.136-.613-.117-.308-.117-.616.018-.307.018-.615.05-.307.05-.615-.116-.309-.116-.617.208-.308.208-.616-.037-.307-.037-.616.006-.307.006-.614-.006-.309-.006-.617,0-.309,0-.619-.061-.31-.061-.62.021-.311.019-.621a.219.219,0,0,0-.033-.035c-.3,0-.3.11-.6.11s-.3-.133-.6-.133-.3.079-.6.079-.3,0-.6,0-.3.02-.6.02-.3.054-.6.054-.3-.1-.6-.1-.3-.091-.6-.091-.3.083-.6.083-.3.131-.6.131-.3-.212-.6-.212-.3.121-.6.121-.3-.027-.6-.027-.3-.085-.6-.085-.3-.025-.6-.025-.3.1-.605.1-.306.081-.609.065S446.9,300.428,446.6,300.428Zm-.083,10.847c.1.113.086.306.086.588s0,.282,0,.563.058.283.058.565-.012.5-.133.557c-.143.063-.231.009-.533.009s-.3.015-.6.015-.3-.088-.6-.088-.3.1-.6.1-.3-.052-.6-.052-.3.076-.6.076-.3-.145-.6-.145-.3.049-.606.049-.3-.028-.6-.028-.3-.021-.6-.021-.3.024-.6.024-.3.119-.607.119-.3-.055-.606-.055-.3.078-.606.078-.3-.055-.608-.055-.3.013-.606.013-.3-.075-.606-.075-.3.075-.606.075-.3-.027-.608-.027-.305-.054-.609-.054-.306.076-.611.076-.443.242-.668.036c0,0,0-.3,0-.586s-.025-.32-.025-.6.032-.282.032-.565-.111-.322.1-.515.256-.142.558-.142.3.037.6.037.3-.012.6-.012.3.106.6.106.3-.026.6-.026.3.073.6.073.3.012.6.012.3-.132.606-.132.3.019.6.019.3.029.6.029.3.065.6.065.3-.09.608-.09.3-.05.606-.05.3-.038.606-.038.3.1.608.1.3.074.607.074.3-.137.606-.137.3-.023.605-.023.3.046.609.046.3.007.609.007a2.253,2.253,0,0,0,.6-.05C446.275,311.164,446.425,311.175,446.515,311.275Z" transform="translate(-385.059 -252.018)" fill="#fff"/>
      <path id="パス_1688" data-name="パス 1688" d="M385.4,300.536c-.3,0-.3-.124-.6-.124s-.3-.01-.6-.01-.3-.007-.6-.007-.3.078-.6.078-.3,0-.6,0l-.6,0c-.3,0-.3-.073-.6-.073s-.3,0-.606,0-.3.07-.6.07-.3.038-.6.038-.3-.024-.6-.024-.3-.1-.607-.1-.3.017-.606.017-.3-.008-.606-.008-.3.185-.608.185-.3-.037-.607-.037-.3-.158-.606-.158-.3.167-.605.167-.3-.026-.608-.026-.305.037-.61.037-.3-.119-.611-.119-.306.071-.611.071h-.594c-.3,0-.3-.088-.595-.088s-.3.037-.6.037-.3-.071-.6-.071-.3.135-.6.135-.3-.061-.6-.061-.3.045-.6.045-.3-.066-.6-.066-.3.035-.6.035-.3-.085-.6-.085-.3.007-.6.007-.3-.019-.6-.019-.3-.009-.6-.009-.305.141-.61.141-.306.047-.613.047-.3-.082-.605-.082-.317-.032-.625-.032-.406,0-.511.107a.731.731,0,0,0-.149.558c0,.306.018.29.018.6s-.046.3-.046.6.03.305.03.611.039.305.039.611.089.306.089.611-.063.306-.063.612-.059.306-.059.612-.021.306-.021.613.053.307.053.614,0,.306,0,.613-.084.306-.084.613.138.306.138.612-.114.306-.114.613.071.306.071.613-.044.307-.044.614.094.307.094.614-.03.306-.03.613.024.307.024.613-.1.307-.1.613.064.3.064.609.046.305.046.609-.153.306-.153.611.109.307.109.613.05.308.05.616-.032.306-.032.613-.009.306-.009.613.014.307.014.614-.133.308-.133.616.012.307.012.615.111.307.111.615-.044.308-.044.617.086.308.086.616-.105.307-.105.615.085.307.085.615-.08.309-.08.617-.021.309-.021.619.016.31.016.62-.146.365.08.578.288.136.617.136.328-.144.657-.144.33.155.659.155.33-.027.659-.026v-.149c.3,0,.3.072.608.072s.3-.035.609-.035.3-.06.609-.06.305.03.61.03.3-.005.609-.005.3.171.608.171.3-.026.608-.026.3-.122.608-.122.3.153.607.153.3-.17.608-.17.3.04.608.04.3-.052.609-.052.305.009.609.009.306.133.611.133.3.017.609.017.3-.078.609-.078.3-.019.608-.019.3.041.609.041.305-.056.609-.056.306.027.611.027.3.068.611.068.305-.071.61-.071.3.006.609.006h.61c.3,0,.3.012.606.012s.3-.11.606-.11.3.174.608.174.3-.06.61-.06.306-.107.612-.107.3.1.609.1h.609c.305,0,.305,0,.61,0s.306-.119.612-.119.306.178.612.178.306-.168.611-.168.307.158.614.158.306-.069.612-.069.306-.069.612-.069.306.155.611.155.307-.034.614-.034.307-.041.615-.041.309.043.617.043.308-.014.617-.015v.058c.306,0,.306-.066.611-.066s.306-.023.611-.023.307-.03.614-.03.306-.032.612-.032.306.066.612.066.305-.058.611-.058.307.06.614.06.307.049.615.049h.617c.308,0,.389.089.572-.16.069-.093.03-.192.03-.5s.061-.306.061-.611-.019-.306-.019-.611-.03-.306-.03-.611.015-.306.015-.611,0-.305,0-.611.068-.306.068-.611,0-.306,0-.612-.161-.307-.161-.613.058-.307.058-.614-.027-.307-.027-.613.027-.306.027-.613.1-.306.1-.612,0-.306,0-.613-.092-.306-.092-.613-.072-.307-.072-.614.187-.307.187-.614-.065-.307-.065-.614-.046-.306-.046-.612-.009-.307-.009-.614-.06-.3-.06-.609-.019-.3-.019-.609.073-.306.073-.611.074-.307.074-.614.02-.307.02-.615-.026-.307-.026-.614-.058-.306-.058-.612-.1-.306-.1-.613.03-.308.03-.616.137-.307.137-.615-.121-.307-.121-.615.068-.309.068-.617-.1-.308-.1-.616.091-.307.091-.616.063-.307.063-.614.032-.309.032-.617-.034-.309-.034-.619,0-.311,0-.62.06-.494-.085-.592a.941.941,0,0,0-.588-.11c-.31,0-.31-.018-.619-.018s-.309.161-.617.161-.309-.038-.618-.038-.309.06-.619.06-.309-.054-.619-.054-.309.008-.619.008-.308.037-.617.037-.311-.162-.62-.162-.31.151-.622.151-.311-.118-.623-.118-.312.085-.623.085c-.283,0-.283-.055-.566-.055s-.282.063-.564.063-.284-.019-.568-.019-.284.018-.569.018-.292-.116-.575-.086S385.684,300.536,385.4,300.536Zm-.129,10.874c.116.09.074.178.074.46s-.01.282-.01.563-.007.282-.007.565.038.413-.074.524-.155.043-.457.043h-.6c-.3,0-.3-.073-.6-.073s-.3,0-.6,0-.3.071-.6.071-.3.038-.6.038-.3-.025-.6-.025-.3-.1-.606-.1-.3.016-.6.016-.3-.008-.6-.008-.3.185-.6.185-.3-.037-.607-.037-.314-.086-.616-.086-.293.094-.6.094-.3-.026-.608-.026-.3.038-.607.038-.3-.119-.606-.119-.3.071-.605.071h-.608c-.305,0-.305-.088-.61-.088s-.3.037-.611.037-.482,0-.6-.107c-.089-.079-.061-.161-.061-.442s.061-.281.061-.563-.045-.282-.045-.565-.038-.453.055-.542c.11-.105.281-.026.583-.026s.3.085.6.085.3-.007.6-.007.3.02.6.02.3.009.6.009.3-.141.6-.141.31.051.612.051.287-.055.591-.055.31.071.612.071.3.063.6.063.3-.133.6-.133.3-.058.607-.058.3.172.606.172.334-.083.637-.083.273.015.577.015.3-.089.607-.089.3.063.606.063.3.059.605.059.253-.024.557-.024.356-.008.661-.008.317.076.612,0C385.136,311.223,385.27,311.41,385.27,311.41Z" transform="translate(-361.121 -252.024)" fill="#fff"/>
      <path id="パス_1689" data-name="パス 1689" d="M420.062,281.357c.3,0,.3.035.6.035s.3-.1.6-.1.3.119.6.119.3-.04.6-.04.3,0,.6,0,.3.107.6.107.3-.2.6-.2.3.158.6.158.3-.1.6-.1.3.047.6.047.3.076.6.076.3-.012.6-.012.3-.09.6-.09.3.1.6.1.3-.075.6-.075.3.024.605.024.3.048.607.048.4.011.5-.147a2.549,2.549,0,0,0,.051-.519c0-.3.068-.3.068-.6s-.077-.3-.077-.6.027-.3.027-.6.1-.3.1-.6-.109-.3-.109-.6.123-.3.123-.6-.068-.3-.068-.6-.074-.3-.074-.6.127-.3.127-.6-.074-.3-.074-.6.064-.3.064-.6-.085-.3-.085-.6.007-.3.007-.6.088-.3.088-.6-.08-.3-.08-.605.1-.3.1-.607,0-.3,0-.607c0-.282-.157-.282-.157-.563s.023-.282.023-.564-.04-.283-.04-.565.136-.283.136-.566.019-.3.019-.6,0-.3,0-.6-.091-.3-.091-.6-.045-.3-.045-.6.01-.3.01-.6.04-.3.04-.6-.065-.3-.065-.6.07-.3.07-.6.009-.3.009-.6.037-.3.037-.6-.091-.3-.091-.6.06-.3.06-.6-.042-.3-.042-.6.124-.3.124-.6-.141-.3-.141-.6-.008-.3-.008-.606-.014-.3-.014-.607.066-.377-.03-.471c-.122-.118-.191-.085-.5-.085s-.3-.084-.609-.084-.3-.047-.608-.047-.3.092-.609.092-.305-.011-.609-.011-.3.058-.609.058-.3-.076-.61-.076-.3.01-.609.01-.305.069-.61.069-.3-.105-.609-.105-.3.047-.609.047-.3-.057-.609-.057-.3.024-.6.024-.3-.031-.606-.031-.3.122-.606.122-.3-.034-.606-.034-.3-.078-.608-.078-.3.023-.608.023-.3-.026-.609-.026-.305-.008-.611-.008-.305.046-.61.046-.3.072-.609.072-.3-.1-.609-.1-.3.091-.608.091-.3-.046-.607-.046-.3-.03-.608-.03-.3.051-.606.051-.3.069-.607.069-.3-.131-.606-.131-.3.085-.606.085-.3.009-.607.009-.3-.005-.608-.005-.3-.038-.608-.038-.3-.077-.608-.077-.3.012-.609.012-.3.05-.61.05-.306-.086-.611-.086-.306.112-.611.112-.305.017-.611.017-.3-.076-.609-.076-.3-.012-.609-.012-.3.044-.609.044-.3-.041-.609-.041-.3.122-.609.122-.3-.058-.609-.058-.305.019-.61.019-.306.044-.611.044-.306-.177-.612-.177-.306.142-.611.142-.306.027-.611.027-.305-.126-.61-.126-.305,0-.611,0-.305.024-.611.024-.306.021-.611.021-.306,0-.613,0-.306.01-.611.01h-.611c-.306,0-.306-.04-.611-.04s-.3-.068-.607-.068-.3.1-.608.1-.3-.011-.609-.011l-.612,0c-.306,0-.306.019-.613.019s-.306.007-.611.007h-.611c-.306,0-.306-.049-.611-.049s-.307.1-.614.1-.307-.166-.613-.166-.306.071-.613.071-.307.057-.615.057-.307.082-.614.082-.307-.161-.614-.161-.306.069-.612.069-.308.051-.616.051-.309-.032-.617-.032-.309-.091-.619-.091h-.618c-.3,0-.3-.012-.6-.012s-.3.121-.6.121-.3-.056-.6-.056-.3.011-.6.011-.3-.023-.6-.023-.3.052-.6.052-.3.018-.6.018-.3-.112-.6-.112-.3-.023-.6-.023-.3.084-.6.084-.3.016-.6.016-.3.049-.6.049-.3-.089-.6-.089-.3-.046-.6-.046-.3.138-.6.138-.3-.108-.605-.108-.3-.025-.607-.025-.454-.014-.536.073-.068.291-.068.589-.036.3-.036.6.06.3.06.6-.071.3-.071.6.042.3.042.6.1.3.1.6-.117.3-.117.6.132.3.132.6-.044.3-.044.6-.088.3-.088.6-.033.3-.033.6.15.3.15.6-.136.3-.136.6.06.3.06.6-.021.3-.021.6.088.3.088.605-.035.3-.035.607-.031.3-.031.607c0,.282-.079.282-.079.563s.086.282.086.564-.061.282-.061.565-.007.283-.007.566-.053.3-.053.6.018.3.018.6.136.3.136.6-.1.3-.1.6,0,.3,0,.6.028.3.028.6-.02.3-.02.6-.057.3-.057.6.026.3.026.6.032.3.032.6-.048.3-.048.6-.011.3-.011.6.089.3.089.6-.061.3-.061.6-.026.3-.026.6.054.3.054.605-.08.251-.08.555-.1.374.156.543a.9.9,0,0,0,.543.12c.3,0,.3.018.6.018s.3.007.6.007.3.015.6.015.3-.078.6-.078.3-.007.6-.007.3-.024.6-.024.3.036.6.036.3-.077.6-.077.3.164.6.164.3.019.6.019.3-.1.6-.1.3.1.6.1.3-.093.6-.093.3.019.6.019.3.084.605.084.3,0,.607,0,.3-.118.608-.118.3.09.611.09.306-.091.612-.091.306.054.612.054.306.043.611.043.3-.036.611-.036.305.058.609.058.305-.126.61-.126.3.01.609.01l.609,0c.3,0,.3-.032.608-.032s.3.031.609.031.3.051.608.051.3.007.609.007.3-.01.609-.01.305-.048.609-.048.305.113.61.113.306-.054.611-.054.306-.063.611-.063.307,0,.613,0,.306-.019.613-.019.306.138.612.138.306-.167.612-.167.305.071.611.071.306-.063.611-.063.306.093.611.093.306-.051.611-.051.306.11.611.11.306.019.612.019.306-.052.612-.052.307-.016.614-.016.306-.049.613-.049.306.042.612.042.306-.016.612-.016.306-.066.612-.066l.613,0h.614l.614,0c.307,0,.307.11.613.11s.307-.1.613-.1h.613c.3,0,.3.126.609.126s.3-.069.609-.069.305-.082.611-.082.307.061.613.061.308-.069.616-.069.306-.013.613-.013.306.066.612.066.306.034.613.034.308.021.616.021.308-.046.615-.046.307-.031.615-.031.308-.022.617-.022.307.029.616.029.308-.022.616-.022.307.081.614.081.309-.034.617-.034l.619,0c.31,0,.31-.04.62-.042S419.752,281.357,420.062,281.357Zm-36.036-12.985c.072-.078.209-.075.515-.075s.306-.1.612-.1.306.119.612.119.306-.04.611-.04.3,0,.611,0,.305.107.609.107.305-.2.61-.2.3.158.609.158.3-.1.609-.1.3.047.608.047.3.076.609.076.3-.012.608-.012.3-.09.609-.09.3.1.609.1.305-.075.609-.075.305.024.61.024.306.048.611.048.306-.169.611-.169.307.046.613.046.306.068.613.068.306-.077.612-.077.306.026.612.026.305.1.611.1.306-.109.611-.109.306.122.611.122.306-.068.611-.068.306-.074.611-.074.306.127.612.127.306-.074.612-.074.307.063.614.063.306-.085.613-.085.306.008.612.008.306.088.612.088.306-.08.612-.08.306.1.613.1.307,0,.614,0,.307-.156.614-.156.307.023.613.023.307-.04.613-.04.306.135.613.135.3.019.609.019h.609c.305,0,.305-.091.611-.091s.307-.045.613-.045.308.01.616.01.306.04.613.04.306-.065.612-.065.306.069.613.069.308.009.616.009.308.037.615.037.307-.092.615-.092.308.06.617.06.307-.043.616-.043.308.124.616.124.307-.141.614-.141.309-.008.617-.008.309-.014.619-.014.31.134.62.134.438-.014.54.071.133.159.133.44-.084.282-.084.564-.047.282-.047.565-.018.44-.121.524c-.137.112-.106.044-.412.044s-.306.058-.612.058-.306-.076-.612-.076-.306.01-.611.01-.305.069-.611.069-.305-.105-.609-.105-.305.048-.609.048-.3-.057-.609-.057-.3.024-.609.024-.3-.031-.608-.031-.3.122-.609.122-.3-.034-.608-.034-.3-.078-.609-.078-.3.023-.609.023-.305-.026-.609-.026-.305-.008-.61-.008-.306.046-.611.046-.306.072-.611.072-.307-.1-.613-.1-.306.091-.613.091-.306-.046-.612-.046-.306-.03-.612-.03-.3.051-.611.051-.306.069-.611.069-.306-.131-.611-.131-.306.085-.611.085-.306.009-.611.009-.306-.005-.612-.005-.306-.038-.613-.038-.307-.077-.614-.077-.306.012-.613.012-.306.049-.613.049-.306-.086-.612-.086-.306.112-.612.112-.306.017-.612.017-.307-.076-.614-.076-.307-.012-.614-.012-.307.044-.613.044-.307-.041-.613-.041-.306.122-.613.122-.3-.058-.609-.058-.3.02-.609.02-.305.044-.611.044-.307-.177-.613-.177-.308.142-.616.142-.306.027-.613.027-.306-.126-.613-.126-.306,0-.613,0-.308.024-.616.024-.307.021-.615.021-.307,0-.615,0-.308.01-.617.01h-.616c-.308,0-.308-.04-.616-.04s-.307-.068-.614-.068-.309.1-.617.1-.309-.011-.619-.011l-.62,0c-.31,0-.434.027-.524-.065-.117-.119-.108-.2-.108-.485s0-.282,0-.564.11-.3.049-.574C383.9,268.544,383.941,268.463,384.025,268.371Z" transform="translate(-365.749 -235.195)" fill="#fff"/>
      <path id="パス_1690" data-name="パス 1690" d="M433.488,230.127c0-.3.042-.3.042-.6s0-.3,0-.6.035-.3.035-.6-.04-.3-.04-.6-.113-.3-.113-.6.131-.3.131-.6-.027-.3-.027-.6-.068-.3-.068-.6,0-.3,0-.6.141-.3.141-.6-.029-.3-.029-.6-.071-.3-.071-.6.043-.3.043-.605-.037-.3-.037-.606.03-.375-.058-.5-.22-.144-.518-.144-.331-.075-.63-.075-.3.058-.6.058-.3.033-.6.033-.3-.02-.6-.02-.3.074-.6.074-.3-.078-.6-.078-.3.021-.6.021-.3.065-.6.065-.3-.038-.6-.038-.3-.127-.6-.127-.3.064-.6.064-.3.068-.6.068-.3-.023-.6-.023-.3.015-.6.015-.3.127-.605.127-.3-.059-.607-.059-.3,0-.46.082c-.1.052-.213.153-.213.454s.122.3.122.6-.01.3-.01.6-.017.3-.017.6-.023.3-.023.6.026.3.026.6.038.3.038.6-.063.3-.063.6-.071.3-.071.6.032.3.032.6.032.3.032.6.067.3.067.6-.082.3-.082.6.069.3.069.606-.042.5-.127.538c-.125.059-.238.013-.547.013s-.31.054-.62.054-.311.065-.621.065-.311-.029-.62-.029-.309-.062-.619-.062-.309-.067-.619-.067-.309.192-.619.192-.31-.128-.62-.128-.31.013-.62.013-.311.058-.621.058-.311-.014-.62-.014-.31.009-.62.009-.31,0-.62,0-.307.063-.616.063-.308-.153-.616-.153-.309.02-.618.02-.31.011-.62.011-.311-.023-.622-.023-.311.041-.62.041-.309.046-.619.046-.311-.024-.62-.024-.312.064-.623.064-.311.009-.622.009-.311-.15-.622-.15-.312-.055-.623-.055-.312.1-.623.1-.311-.077-.623-.077-.311.21-.621.21-.312-.152-.625-.152-.312,0-.625,0-.314-.033-.627-.033-.57.03-.644-.035-.044-.191-.044-.491.168-.3.168-.6-.107-.3-.107-.6.064-.3.064-.6-.123-.3-.123-.6.01-.3.01-.6.107-.3.107-.6,0-.3,0-.6-.017-.3-.017-.6.041-.3.041-.6-.141-.3-.141-.6.1-.3.1-.6-.08-.3-.08-.605.026-.3.026-.606.038-.374-.025-.477c-.082-.133-.259-.11-.557-.11s-.3.018-.6.018-.3.037-.6.037-.3-.022-.6-.022-.3-.069-.6-.069-.3.047-.6.047-.3-.105-.6-.105-.3.041-.6.041-.3.032-.6.032-.3.008-.6.008-.3-.007-.6-.007-.3-.03-.6-.03-.3.046-.6.046-.3.043-.6.043-.3-.018-.6-.018-.3,0-.605,0-.3.032-.608.032-.354-.026-.5.062-.13.244-.13.544.033.226.033.526-.038.3-.038.6,0,.3,0,.6.089.3.089.6-.065.3-.065.6,0,.3,0,.6,0,.3,0,.6-.11.3-.11.6.174.3.174.6-.174.3-.174.6.043.3.043.6.138.3.138.6-.049.3-.049.606.159.345-.058.556-.261.1-.57.1-.31-.127-.62-.127-.311-.02-.621-.02-.31.086-.62.086-.31-.042-.619-.042-.31-.027-.619-.027-.31.037-.619.037-.31.084-.62.084-.31.015-.62.015-.311-.066-.621-.066-.31-.007-.62-.007-.31.058-.62.058-.31-.057-.62-.057-.307-.03-.616-.03-.308.054-.616.054-.309.058-.618.058-.31-.149-.62-.149-.311.087-.622.087-.31.069-.62.069-.31-.1-.619-.1-.311-.023-.62-.023-.312-.012-.623-.012-.311.134-.622.134-.311-.118-.622-.118-.312.053-.624.053-.311-.126-.623-.126-.311.145-.622.145-.311-.115-.621-.115-.312,0-.625,0-.313.2-.626.2-.314-.222-.627-.222-.337.254-.563.037-.024-.234-.024-.535.007-.3.007-.6.055-.3.055-.6-.227-.3-.227-.6.083-.3.083-.6.112-.3.112-.6-.1-.3-.1-.6.107-.3.107-.6-.052-.3-.052-.6.007-.3.007-.6-.063-.3-.063-.6-.027-.3-.027-.6.128-.3.128-.605-.009-.3-.009-.606-.035-.417-.122-.52c-.115-.136-.234-.142-.532-.142s-.3.1-.6.1-.3.039-.6.039-.3-.1-.6-.1-.3.09-.6.09-.3-.019-.6-.019-.3.067-.6.067-.3-.183-.6-.183-.3.027-.6.027-.3.088-.6.088-.3-.025-.6-.025-.3-.024-.6-.024-.3-.127-.6-.127-.3.046-.6.046-.3.093-.6.093-.3-.012-.605-.012-.3-.014-.607-.014-.42-.035-.522.076-.1.241-.1.55.019.31.019.62-.015.311-.015.621.065.31.065.62.01.31.01.619.029.31.029.619-.09.309-.09.619-.052.31-.052.62.006.31.006.62.11.311.11.621-.052.31-.052.62-.043.31-.043.62-.052.31-.052.62.079.308.079.616-.06.308-.06.616.041.309.041.618.017.31.017.62-.036.311-.036.622.047.31.047.62-.046.309-.046.619-.042.31-.042.62.077.312.077.623.055.311.055.622-.037.311-.037.622-.129.312-.129.623.216.312.216.623-.125.311-.125.622.048.311.048.622,0,.312,0,.624.02.313.02.625-.09.314-.09.628-.036.477.065.576.1.1.219.1c.1,0,.06.056.359.056s.3-.026.6-.026.3-.155.6-.155.3.03.6.03.3.094.6.094.3-.122.6-.122.3.116.6.116.3-.038.6-.038.3.035.6.035.3-.141.6-.141.3.056.6.056.3,0,.6,0l.6,0c.3,0,.3.142.6.142s.3-.09.6-.09.3.11.605.11.3-.1.607-.1.3,0,.608,0,.309.024.619.024.31-.022.62-.022.311.049.622.049.31-.15.62-.15.31.1.619.1.31-.123.619-.123.309.192.619.192.309-.175.619-.175.311-.031.62-.031.311.169.622.169.31-.065.62-.065.311-.058.62-.058.31.077.62.077.308.012.616.012.309,0,.617,0,.309-.03.617-.03.311-.023.62-.023.311.1.622.1.31-.073.62-.073h.619c.31,0,.31-.009.62-.009s.312.032.623.032.311-.171.622-.171.31.145.622.145.312.006.624.006.311.008.623.008.311.049.622.049.311-.078.621-.078.312.084.625.084.313.043.625.043.314-.108.628-.108.314-.031.627-.031c.3,0,.3-.037.6-.037s.3.063.6.063.3.046.6.046.3-.145.6-.145.3.2.6.2.3-.158.6-.158.3.021.6.021.3-.049.6-.049.3.038.6.038.3.111.6.111.3-.114.6-.114.3.032.6.032.3-.055.6-.055.3.124.6.124.3-.079.6-.079.3.043.606.043.3-.032.607-.032.3.013.607.013.31.071.619.071.31.024.62.024.311.019.621.019.31-.13.62-.13.31.03.62.03.309-.026.619-.026.31-.078.619-.078h.62c.31,0,.31.119.62.119s.31-.1.621-.1.31.125.62.125.31-.183.62-.183.31.069.62.069.308-.037.616-.037.308.088.616.088.309.123.617.123.311-.177.62-.177.311.068.622.068.31-.045.62-.045.309.039.619.039.31.009.62.009.311-.057.623-.057.311.04.622.04.311-.007.622-.007.312-.056.623-.056.312-.024.623-.024.311.019.622.019.311.16.622.16.312-.048.624-.048.313-.047.626-.047.314.048.627.048.314-.052.627-.052c.3,0,.3.079.6.079s.3-.124.6-.124.3.176.6.176.3-.11.6-.11.3-.057.6-.057.3,0,.6,0,.3.061.6.061.3-.03.6-.03.3.081.6.081.3-.111.6-.111.3-.065.6-.065.3.11.6.11.3-.04.6-.04.3.017.6.017.3-.09.6-.09.3-.017.605-.017.36.094.664.094c0,0,.413.052.5-.063s.051-.2.051-.5-.029-.3-.029-.6.089-.3.089-.6-.1-.3-.1-.6.1-.3.1-.6.013-.3.013-.6-.083-.3-.083-.6,0-.3,0-.6.111-.3.111-.6.013-.3.013-.6-.075-.3-.075-.6-.074-.3-.074-.6.063-.3.063-.6-.048-.3-.048-.6.046-.3.046-.6-.032-.3-.032-.605.116-.3.116-.607-.1-.3-.119-.606C433.472,230.11,433.488,230.127,433.488,230.127Z" transform="translate(-361.111 -220.969)" fill="#fff"/>
    </g>
    <g id="グループ_1908" data-name="グループ 1908" transform="translate(361.111 303.176)">
      <g id="グループ_1902" data-name="グループ 1902" transform="translate(62.443 2.262)">
        <path id="パス_1691" data-name="パス 1691" d="M474.087,366.528a2.672,2.672,0,0,1-2.816,2.065c-1.247,0-1.951-.583-2.092-1.466l-.04-.134a2.765,2.765,0,0,1-2.775,1.6c-1.729,0-2.695-.983-2.695-2.082,0-1.483,1.448-2.449,3.761-2.849l1.669-.283v-.35c0-1.282-.563-1.993-2.253-1.993a2.524,2.524,0,0,0-2.674,1.816l-.161-.034c.322-1.915,1.85-3.115,4.223-3.115,2.675,0,3.842,1.036,3.842,3.168v3.557a.779.779,0,0,0,.784.883,1.078,1.078,0,0,0,1.045-.8Zm-4.988.183V363.8l-.784.117c-1.569.267-1.871,1.083-1.871,1.9a1.4,1.4,0,0,0,1.469,1.515A1.217,1.217,0,0,0,469.1,366.712Z" transform="translate(-463.669 -359.703)" fill="#fff"/>
      </g>
      <g id="グループ_1903" data-name="グループ 1903" transform="translate(20.962 2.375)">
        <path id="パス_1692" data-name="パス 1692" d="M405.435,366.97v-7.082h-3.962V360c.765.072.986.379.986,1.355v5.166a1.492,1.492,0,0,1-1.308.74c-.9,0-1.448-.542-1.448-1.589v-5.746h-4.151l-.012,0v.108c.9.072,1.187.343,1.187,1.336v4.372a2.6,2.6,0,0,0,2.9,2.925,2.986,2.986,0,0,0,2.836-1.878V368.4h4.162v-.109C405.857,368.125,405.435,367.891,405.435,366.97Z" transform="translate(-395.54 -359.888)" fill="#fff"/>
      </g>
      <g id="グループ_1906" data-name="グループ 1906" transform="translate(0 0)">
        <g id="グループ_1904" data-name="グループ 1904">
          <path id="パス_1693" data-name="パス 1693" d="M365.274,365.679v-9.691h-4.163v.107c.885.09,1.187.415,1.187,1.246v8.23c0,.721-.4,1.029-1.187,1.191v.109h5.33v-.109C365.576,366.617,365.274,366.346,365.274,365.679Z" transform="translate(-361.111 -355.988)" fill="#fff"/>
        </g>
        <g id="グループ_1905" data-name="グループ 1905" transform="translate(4.264 1.601)">
          <path id="パス_1694" data-name="パス 1694" d="M374.187,366.491l-3.479-4.749,1.89-1.426a16.052,16.052,0,0,1,2.615-1.589v-.108H371.03v.108c.925.036,1.267.343,1.267.8,0,.379-.242.74-1.106,1.372l-3.077,2.167,3.478,4.839H376v-.109A2.809,2.809,0,0,1,374.187,366.491Z" transform="translate(-368.114 -358.618)" fill="#fff"/>
        </g>
      </g>
      <g id="グループ_1907" data-name="グループ 1907" transform="translate(43.447 2.277)">
        <path id="パス_1695" data-name="パス 1695" d="M439.955,359.727c-1.749,0-3.182.641-3.343,3.548h-.1v-3.45H432.47v.108c.885.072,1.187.433,1.187,1.463v5.636c0,.721-.4,1.029-1.187,1.191v.109h5.751v-.109c-1.086-.125-1.589-.379-1.589-1.191v-1.912c0-2.4,1.09-3.129,2.4-3.129a2.414,2.414,0,0,1,1.045.163h.1v-2.428Z" transform="translate(-432.47 -359.727)" fill="#fff"/>
      </g>
    </g>
  </g>
</svg>
